<svg width="64" height="64" viewBox="0 0 64 64" fill="none" xmlns="http://www.w3.org/2000/svg">
<path d="M32.0007 14.9987C36.5093 14.9987 40.8334 16.7898 44.0215 19.9779C47.2096 23.166 49.0007 27.49 49.0007 31.9987C49.0007 38.2887 45.5723 43.7854 40.5007 46.732V51.832C40.5007 52.5835 40.2021 53.3042 39.6708 53.8355C39.1394 54.3669 38.4188 54.6654 37.6673 54.6654H26.334C25.5825 54.6654 24.8619 54.3669 24.3305 53.8355C23.7992 53.3042 23.5007 52.5835 23.5007 51.832V46.732C18.429 43.7854 15.0007 38.2887 15.0007 31.9987C15.0007 27.49 16.7917 23.166 19.9798 19.9779C23.168 16.7898 27.492 14.9987 32.0007 14.9987V14.9987ZM37.6673 57.4987V60.332C37.6673 61.0835 37.3688 61.8042 36.8375 62.3355C36.3061 62.8669 35.5854 63.1654 34.834 63.1654H29.1673C28.4159 63.1654 27.6952 62.8669 27.1639 62.3355C26.6325 61.8042 26.334 61.0835 26.334 60.332V57.4987H37.6673ZM54.6673 29.1654H63.1673V34.832H54.6673V29.1654ZM0.833984 29.1654H9.33398V34.832H0.833984V29.1654ZM34.834 0.832031V9.33203H29.1673V0.832031H34.834ZM11.9407 7.91536L17.9757 13.9787L13.9523 17.9737L7.91732 11.967L11.9407 7.91536ZM46.0257 13.9504L52.0323 7.91536L56.084 11.967L50.049 17.9737L46.0257 13.9504Z" fill="#6750A4"/>
</svg>
