<svg width="215" height="360" viewBox="0 0 215 360" fill="none" xmlns="http://www.w3.org/2000/svg">
<g opacity="0.1">
<path d="M-83.0434 294.325L-90.892 285.767C-94.5683 288.454 -98.1571 291.054 -101.717 293.682C-104.138 295.434 -104.547 295.376 -106.268 292.835C-109.449 288.191 -112.629 283.577 -115.838 278.963C-117.326 276.802 -117.239 276.247 -115.08 274.728C-111.958 272.538 -108.865 270.347 -105.743 268.157C-105.335 267.865 -104.926 267.514 -104.401 267.076C-106.152 263.981 -107.844 260.914 -109.624 257.935C-109.828 257.614 -110.849 257.439 -111.287 257.643C-115.021 259.308 -118.698 261.089 -122.432 262.783C-124.766 263.835 -125.321 263.601 -126.284 261.235C-128.559 255.716 -130.806 250.196 -133.053 244.676C-133.899 242.603 -133.636 242.048 -131.506 241.259C-127.859 239.857 -124.183 238.456 -120.507 237.112C-119.398 236.733 -119.048 236.265 -119.456 235.068C-120.477 231.855 -121.382 228.614 -122.374 225.226C-126.75 226.248 -130.952 227.212 -135.153 228.205C-138.159 228.906 -138.596 228.672 -139.18 225.664C-140.259 220.203 -141.281 214.77 -142.331 209.309C-142.827 206.768 -142.448 206.243 -139.88 205.717C-136.058 204.958 -132.177 204.257 -128.355 203.439C-127.859 203.322 -127.101 202.621 -127.13 202.271C-127.422 198.62 -127.859 194.97 -128.268 191.29C-132.061 191.29 -135.737 191.144 -139.384 191.319C-145.861 191.669 -144.957 191.231 -144.957 186.354C-144.957 181.36 -144.957 176.395 -144.957 171.401C-144.957 168.948 -144.403 168.422 -141.922 168.539C-137.779 168.744 -133.636 168.977 -129.493 169.182C-128.968 169.211 -128.472 169.182 -127.655 169.182V157.704C-131.74 156.828 -136 155.923 -140.259 154.988C-142.448 154.492 -142.769 153.995 -142.36 151.834C-141.222 145.789 -140.114 139.772 -138.976 133.727C-138.596 131.77 -137.838 131.332 -135.854 131.829C-131.448 132.997 -127.042 134.136 -122.549 135.304C-122.345 134.954 -122.17 134.574 -122.024 134.194C-121.061 131.128 -120.127 128.032 -119.106 124.995C-118.785 124.031 -119.077 123.651 -119.923 123.301C-123.833 121.753 -127.713 120.147 -131.623 118.599C-133.636 117.781 -133.986 117.139 -133.053 115.153C-130.514 109.691 -127.918 104.259 -125.321 98.8271C-124.475 97.0456 -123.745 96.812 -121.965 97.6589C-118.435 99.3528 -114.905 101.076 -111.374 102.77C-110.762 103.062 -110.12 103.325 -109.361 103.646C-107.581 100.375 -105.831 97.2208 -104.197 94.0083C-104.022 93.687 -104.488 92.7525 -104.897 92.4312C-108.252 89.978 -111.666 87.5832 -115.021 85.1884C-116.684 83.991 -116.801 83.3777 -115.576 81.7714C-111.929 76.8942 -108.281 72.0462 -104.605 67.169C-103.526 65.7088 -102.68 65.6211 -101.25 66.7601C-97.9237 69.3594 -94.6267 71.9586 -91.2713 74.4994C-90.9212 74.7623 -89.9584 74.8791 -89.7541 74.6163C-87.2449 71.8418 -84.8232 69.0089 -82.314 66.1176C-85.4651 62.8175 -88.4995 59.6634 -91.5631 56.5092C-93.3137 54.6985 -93.3429 54.056 -91.4464 52.3913C-87.0698 48.5947 -82.6933 44.7981 -78.2876 41.0306C-76.5953 39.5996 -76.0118 39.6288 -74.5238 41.3519C-71.9854 44.2724 -69.447 47.1929 -67.0253 50.201C-66.1208 51.3108 -65.5081 51.2524 -64.4577 50.4346C-62.1236 48.5947 -59.7019 46.8132 -57.2802 45.0609C-56.3757 44.4184 -56.2298 43.9219 -56.8425 42.929C-59.06 39.4244 -61.2191 35.8614 -63.349 32.2984C-64.4285 30.4877 -64.2535 29.8744 -62.3861 28.7938C-57.251 25.8441 -52.1159 22.9236 -46.9807 20.0031C-45.376 19.0978 -44.6757 19.2438 -43.6837 20.9377C-41.5246 24.6175 -39.4239 28.3265 -37.294 32.0355C-37.0606 32.4152 -36.7688 32.7657 -36.4478 33.2037C-33.1217 31.5975 -29.883 29.962 -26.586 28.4725C-25.5648 28.0053 -25.7107 27.4504 -26.0025 26.6618C-27.3446 22.9236 -28.6576 19.1854 -29.9997 15.4472C-30.7 13.4904 -30.4082 12.7895 -28.4825 12.1178C-22.793 10.1611 -17.1035 8.23357 -11.414 6.24764C-9.92599 5.72195 -9.02151 6.27684 -8.58386 7.67868C-7.35843 11.5629 -6.10382 15.4764 -4.96591 19.419C-4.55745 20.7917 -3.94472 21.1421 -2.57341 20.7917C0.0816956 20.12 2.76596 19.4482 5.45024 19.0102C7.25922 18.7181 7.34676 17.7544 7.17169 16.3233C6.70486 12.2638 6.29637 8.20436 5.88789 4.11568C5.71283 2.24657 6.17967 1.69168 8.07617 1.54565C13.8532 1.04917 19.6011 0.581893 25.3781 0.114615C27.2746 -0.0314098 27.8581 0.494278 28.0624 2.451C28.4417 6.48128 28.7918 10.4823 29.1711 14.5126C29.2587 15.0383 29.3753 15.5348 29.5212 16.0313H41.3962C41.8631 11.5045 42.3299 6.97776 42.7967 2.451C43.0302 0.260639 43.5262 -0.177434 45.7144 0.0562048C51.6373 0.640302 57.5603 1.31201 63.4832 1.86691C65.0004 2.01293 65.5256 2.77226 65.3797 4.17409C64.942 8.11675 64.5044 12.0594 64.0667 16.0313C63.9792 16.7614 63.9792 17.5207 63.9209 18.3385L75.2123 20.5288C76.3794 17.1119 77.5465 13.7533 78.626 10.3947C80.6101 4.26171 80.4058 5.51752 85.1617 6.97776C89.8591 8.438 94.4983 10.0151 99.1666 11.5629C101.326 12.2638 101.676 12.9063 100.946 15.0675C99.5459 19.1562 98.1162 23.2449 96.6282 27.5964C98.8165 28.5894 101.034 29.5823 103.251 30.5461C104.681 31.1594 106.402 32.4736 107.54 32.094C108.678 31.7143 109.233 29.6407 110.02 28.2681C111.421 25.7857 112.851 23.2741 114.193 20.7625C114.951 19.3606 115.973 19.1854 117.256 19.9155C122.45 22.8652 127.614 25.8149 132.808 28.7646C134.587 29.7868 134.704 30.4585 133.566 32.2984L126.651 43.3962C129.773 45.791 132.808 48.1858 135.9 50.4346C136.134 50.6098 137.067 50.2594 137.388 49.8797C140.073 46.7256 142.699 43.4839 145.325 40.2713C146.667 38.6358 147.513 38.6066 149.059 40.0961C153.348 44.1848 157.608 48.2735 161.897 52.3329C163.385 53.7348 163.443 54.4649 162.043 56.0127C159.096 59.2837 156.149 62.5254 153.086 65.9132L161.168 74.7039C164.319 72.3091 167.382 69.9727 170.417 67.6071C173.947 64.8618 174.005 64.8618 176.573 68.5416C179.607 72.9224 182.671 77.2739 185.705 81.6254C186.902 83.3485 186.814 84.0202 185.093 85.2468C182 87.4664 178.878 89.6276 175.785 91.8471C175.231 92.2268 174.706 92.6649 174.064 93.1321L180.133 103.237C182.175 102.244 184.217 101.28 186.26 100.317C188.419 99.2652 190.578 98.243 192.737 97.1916C194.138 96.5199 195.071 96.9288 195.684 98.3014C198.018 103.646 200.381 109.02 202.716 114.393C203.562 116.35 203.357 116.934 201.461 117.839C197.668 119.65 193.846 121.373 190.053 123.242C189.586 123.476 188.944 124.294 189.061 124.644C190.082 128.178 191.249 131.653 192.445 135.304C196.092 134.457 199.594 133.639 203.124 132.822C204.32 132.53 205.517 132.267 206.713 132.033C208.084 131.77 209.018 132.296 209.28 133.727C210.389 139.597 211.498 145.438 212.548 151.308C212.898 153.236 212.461 153.761 210.447 154.229C206.071 155.222 201.665 156.185 196.939 157.237L198.076 168.89C199.798 168.977 201.403 169.123 203.037 169.123C206.129 169.182 209.251 169.211 212.344 169.182C214.007 169.182 214.678 169.97 214.707 171.547C214.795 177.388 214.941 183.258 214.999 189.099C215.028 190.91 214.386 191.523 212.607 191.523C207.851 191.553 203.124 191.523 198.106 191.523L197.055 203.381C200.819 204.111 204.525 204.87 208.23 205.542C213.19 206.447 213.394 206.155 212.227 211.266C211.002 216.435 209.951 221.663 208.755 226.832C208.347 228.672 207.705 228.964 205.867 228.497C201.461 227.387 197.055 226.306 192.445 225.167L188.477 236.966C192.212 238.543 195.742 240.062 199.302 241.493C203.27 243.099 203.416 243.245 201.607 247.188C199.448 251.919 197.23 256.621 195.013 261.323C194.05 263.338 193.554 263.513 191.453 262.579C187.777 260.943 184.13 259.22 180.424 257.614C179.987 257.439 179.024 257.526 178.849 257.818C176.982 260.914 175.231 264.068 173.364 267.339C176.515 269.588 179.549 271.749 182.583 273.91C187.602 277.473 187.018 276.918 183.634 281.358C180.541 285.388 177.361 289.389 174.21 293.39C172.809 295.171 172.313 295.259 170.475 293.886C167.266 291.521 164.114 289.126 160.905 286.76C160.642 286.556 160.321 286.381 159.884 286.118C157.521 288.63 155.128 291.112 152.852 293.711C152.619 293.974 152.911 294.996 153.261 295.405C155.887 298.413 158.6 301.305 161.226 304.283C162.743 305.977 162.685 306.503 161.022 308.051C156.674 312.052 152.327 316.082 148.009 320.083C146.258 321.689 145.675 321.689 144.187 319.908C141.386 316.52 138.614 313.132 135.725 309.628L125.98 316.871C128.285 320.609 130.503 324.26 132.749 327.881C134.15 330.159 134.062 330.626 131.728 332.028C126.622 335.007 121.545 338.015 116.439 340.965C114.776 341.928 114.018 341.695 113.084 339.943C111.129 336.35 109.203 332.729 107.249 329.137C106.869 328.436 106.578 327.618 105.44 328.144C102.143 329.633 98.8456 331.093 95.3152 332.671C96.0447 334.715 96.7157 336.701 97.416 338.658C98.2329 340.906 98.9915 343.184 99.8669 345.433C100.45 346.893 99.9544 347.828 98.5831 348.354C92.6018 350.515 86.5913 352.647 80.6101 354.779C79.1512 355.304 78.2759 354.691 77.8674 353.202C76.7879 349.259 75.5916 345.345 74.5704 341.374C74.2495 340.118 73.7243 339.738 72.4989 340.03C69.7271 340.731 66.9552 341.432 64.1543 342.045C62.9872 342.308 62.6371 342.834 62.8121 343.973C63.3373 347.799 63.8333 351.624 64.271 355.45C64.5336 357.641 64.0959 358.225 61.8785 358.429C55.8972 358.984 49.8867 359.51 43.9055 359.977C41.9214 360.123 41.3671 359.597 41.2795 357.641C41.0753 353.844 40.9003 350.047 40.696 346.251C40.6668 345.608 40.5793 344.995 40.5209 344.294H28.4709C28.2083 347.273 27.9749 350.281 27.7123 353.289C27.5956 354.749 27.4788 356.21 27.3913 357.67C27.2746 359.393 26.516 360.123 24.7946 359.948C20.2138 359.451 15.633 358.926 11.0522 358.4C9.59337 358.225 8.13454 358.079 6.70486 357.933C4.72084 357.758 4.10811 357.027 4.39989 355.1C5.04178 351.011 5.71284 346.923 6.38391 342.805C6.41309 342.454 6.41309 342.104 6.38391 341.782L-5.6078 339.212C-6.48311 342.337 -7.30008 345.345 -8.14621 348.383C-8.58386 349.96 -9.05069 351.537 -9.45917 353.114C-9.86765 354.691 -10.8305 355.041 -12.231 354.516C-18.1831 352.384 -24.106 350.252 -30.0581 348.12C-31.5461 347.594 -31.9546 346.66 -31.3419 345.112C-29.6788 340.936 -28.1324 336.73 -26.4402 332.32L-37.2648 327.443L-40.9119 334.102C-42.0206 336.087 -43.1294 338.103 -44.2089 340.089C-44.9383 341.432 -45.9012 341.753 -47.2433 340.936C-52.7578 337.635 -58.3014 334.364 -63.8158 331.035C-65.2747 330.159 -65.3914 329.37 -64.3702 327.823C-61.8901 324.055 -59.4101 320.317 -56.8133 316.403L-66.4126 309.248L-74.7863 319.178C-75.1656 319.616 -75.5449 320.083 -75.9242 320.521C-76.7996 321.485 -77.7332 321.514 -78.6669 320.638C-83.3935 316.257 -88.1202 311.877 -92.8469 307.496C-94.0139 306.415 -93.7222 305.364 -92.701 304.313C-89.5791 301.129 -86.4279 297.829 -83.0434 294.325ZM199.068 115.036L193.029 101.222C192.358 101.485 191.92 101.66 191.512 101.835C188.04 103.529 184.568 105.223 181.095 106.888C179.17 107.793 178.586 107.618 177.507 105.836C175.289 102.186 173.101 98.5058 170.913 94.8552C169.425 92.3436 169.512 92.0224 171.905 90.3285C175.289 87.9337 178.674 85.5389 182.263 82.998L173.247 70.0603C169.658 72.8055 166.244 75.4632 162.802 78.0624C161.08 79.3766 160.555 79.3182 159.096 77.7412C156.149 74.5578 153.231 71.3745 150.314 68.162C148.446 66.1176 148.446 65.8548 150.314 63.8105C153.115 60.6855 155.945 57.5606 158.863 54.3481L147.513 43.5131C146.988 44.1264 146.521 44.5644 146.141 45.0609C143.72 48.0106 141.298 50.9311 138.906 53.8808C137.505 55.5747 136.834 55.6623 135.113 54.3481C131.961 51.9241 128.81 49.4709 125.63 47.0761C121.954 44.2724 121.954 44.3016 124.434 40.3297C126.301 37.3216 128.11 34.2843 130.007 31.1594L116.614 23.6245C116.177 24.3547 115.885 24.8511 115.593 25.3476C113.813 28.5894 112.034 31.8019 110.283 35.0436C109.554 36.3871 108.591 36.7083 107.249 36.1242C102.755 34.1675 98.2329 32.2108 93.7397 30.2248C92.5434 29.6992 92.1933 28.7646 92.7185 27.4796C93.2729 26.1362 93.7397 24.7343 94.2065 23.3617C95.1985 20.4996 96.1905 17.6667 97.2117 14.6878L82.6233 9.89825C82.419 10.4239 82.244 10.7744 82.0981 11.1541C80.8435 14.9215 79.5597 18.6889 78.3051 22.4563C77.8966 23.6537 77.2839 24.5883 75.7667 24.2963C71.4193 23.4493 67.0428 22.6608 62.6954 21.7554C59.9528 21.1713 59.7486 20.6456 60.1279 17.8712C60.7114 13.7241 61.0907 9.54779 61.5867 5.22547C56.6558 4.72898 51.8708 4.2325 47.1149 3.85284C46.7648 3.82363 46.0646 4.55376 46.0354 4.99183C45.5686 9.05131 45.1892 13.14 44.8391 17.2287C44.6641 19.2438 44.1097 19.8571 42.1257 19.8279C37.4574 19.7403 32.7599 19.5943 28.0624 19.5651C26.6035 19.5359 25.9033 18.9226 25.7574 17.5207C25.4365 13.8409 25.0863 10.1611 24.7362 6.51048C24.6487 5.66354 24.4736 4.8166 24.3277 3.85284L9.44749 5.05024C9.9435 9.83984 10.3811 14.3958 10.848 18.9226C11.0522 20.8501 10.5854 21.551 8.80559 21.9599C4.28317 22.9528 -0.239243 23.8582 -4.7325 24.9096C-6.45393 25.3184 -7.18336 24.6759 -7.65019 23.0989C-8.93398 18.8641 -10.3053 14.6294 -11.735 10.1611L-26.4693 15.2427C-24.9229 19.5067 -23.5225 23.5369 -22.0053 27.5088C-21.3925 29.1735 -21.7718 30.1372 -23.3766 30.8673C-27.6656 32.8825 -31.9254 34.956 -36.1561 37.0588C-37.5566 37.7305 -38.4902 37.38 -39.2197 36.095C-40.6785 33.5542 -42.1082 31.0134 -43.567 28.4725C-44.4715 26.9247 -45.376 25.406 -46.3388 23.7706L-59.6727 31.3638C-59.3809 31.9479 -59.1767 32.3568 -58.9433 32.7365C-56.8717 36.1534 -54.8001 39.5412 -52.7578 42.9582C-51.6199 44.8273 -51.7366 45.353 -53.4288 46.6088C-56.5799 48.9744 -59.7019 51.34 -62.853 53.6472C-66.325 56.188 -66.0041 57.0057 -69.447 52.8586C-71.7811 50.0257 -74.2028 47.2805 -76.6828 44.36L-88.4995 54.5525C-87.6825 55.4286 -87.0698 56.1004 -86.4279 56.7721C-84.0354 59.2545 -81.6429 61.7661 -79.2212 64.2193C-78.025 65.4167 -77.8499 66.4389 -79.1045 67.8115C-82.0806 71.1117 -84.9107 74.5578 -87.8576 77.8872C-89.8125 80.1068 -90.1042 80.1068 -92.4092 78.2961C-95.7646 75.6676 -99.1199 73.0392 -102.563 70.3231L-112.045 82.9104C-108.398 85.4805 -104.926 87.9629 -101.425 90.4161C-99.295 91.9347 -99.1783 92.3436 -100.375 94.5632C-102.125 97.8049 -103.876 101.047 -105.656 104.288C-107.931 108.465 -107.902 108.436 -112.25 106.304C-115.634 104.639 -119.077 103.033 -122.578 101.339L-129.376 115.62C-125 117.401 -120.915 119.066 -116.801 120.731C-115.576 121.227 -114.467 121.811 -114.963 123.388C-116.422 128.207 -117.881 132.997 -119.398 137.786C-119.806 139.101 -120.711 139.568 -122.141 139.101C-124.212 138.458 -126.313 137.962 -128.414 137.436C-130.806 136.823 -133.228 136.209 -135.708 135.596L-138.713 151.571C-138.042 151.746 -137.546 151.922 -137.021 152.009C-133.257 152.798 -129.464 153.615 -125.7 154.346C-124.066 154.667 -123.424 155.514 -123.541 157.149C-123.804 161.647 -124.008 166.144 -124.241 170.671C-124.329 172.131 -125.029 172.949 -126.605 172.832C-127.947 172.745 -129.289 172.657 -130.631 172.628C-134.191 172.599 -137.721 172.628 -141.31 172.628V187.668C-140.61 187.668 -140.055 187.668 -139.472 187.668C-135.504 187.581 -131.506 187.493 -127.538 187.435C-125.438 187.405 -124.883 187.844 -124.679 189.859C-124.27 193.947 -123.833 198.007 -123.541 202.096C-123.249 206.243 -123.395 206.243 -127.48 206.944C-131.215 207.586 -134.891 208.404 -138.742 209.163L-135.708 224.613L-122.578 221.546C-120.332 221.02 -119.806 221.312 -119.135 223.532C-117.881 227.737 -116.684 231.943 -115.488 236.178C-114.846 238.397 -115.138 238.835 -117.356 239.682C-121.324 241.172 -125.292 242.69 -129.435 244.267L-123.308 259.22C-119.194 257.264 -115.284 255.453 -111.374 253.584C-109.098 252.503 -108.486 252.678 -107.289 254.81L-100.987 265.967C-99.8785 267.923 -99.9952 268.361 -101.892 269.705C-103.555 270.873 -105.247 272.041 -106.91 273.239C-108.807 274.582 -110.674 275.955 -112.658 277.357L-103.555 290.469C-99.7326 287.695 -96.1439 285.067 -92.5259 282.438C-90.7753 281.182 -90.1918 281.212 -88.7913 282.73C-85.8152 285.972 -82.8684 289.214 -79.8923 292.455C-78.4626 294.032 -78.4626 294.587 -79.9798 296.164C-82.314 298.618 -84.6773 301.042 -87.0115 303.524C-87.7701 304.313 -88.4703 305.13 -89.2581 306.036L-77.5873 316.871C-77.033 316.228 -76.537 315.732 -76.0993 315.206C-73.6484 312.286 -71.2268 309.365 -68.7759 306.474C-67.317 304.751 -66.7043 304.663 -64.9537 305.977C-61.3358 308.664 -57.7178 311.322 -54.0999 314.038C-52.4076 315.294 -52.2909 315.907 -53.4288 317.688C-55.8213 321.368 -58.2138 325.019 -60.7231 328.815L-46.7181 337.168C-44.384 332.933 -42.1665 328.932 -40.0074 324.931C-39.278 323.559 -38.3443 323.121 -36.8563 323.792C-32.5965 325.72 -28.3366 327.647 -24.0185 329.487C-22.4429 330.159 -22.0928 331.21 -22.7055 332.7C-23.5808 334.919 -24.4561 337.168 -25.3022 339.417C-26.0317 341.344 -26.7319 343.301 -27.4613 345.316L-12.5228 350.661C-11.2681 346.222 -10.0719 341.987 -8.93399 337.781C-8.2921 335.474 -7.85443 335.153 -5.43275 335.649C-1.55222 336.467 2.3575 337.285 6.23802 338.132C10.7313 339.096 10.7021 339.096 9.88515 343.681C9.24326 347.215 8.71806 350.778 8.13452 354.487L23.8609 356.239C24.211 351.741 24.5612 347.448 24.8821 343.155C25.0572 340.994 25.4073 340.614 27.5664 340.614C31.9721 340.614 36.3486 340.673 40.7543 340.673C43.7596 340.673 44.0805 341.052 44.1972 344.119C44.3431 348.149 44.6057 352.15 44.81 356.268C45.4227 356.268 45.7436 356.297 46.0938 356.268C50.5286 355.888 54.9344 355.48 59.3692 355.158C60.653 355.071 60.5363 354.311 60.4196 353.435C59.9236 349.668 59.4568 345.9 58.9608 342.104C58.7565 340.527 59.2817 339.621 60.974 339.242C64.9712 338.365 68.9101 337.314 72.8782 336.321C76.4378 335.445 76.5836 335.503 77.5757 339.125C77.7215 339.621 77.8383 340.147 77.9841 340.643C78.947 344.031 79.939 347.448 80.931 350.924L95.9571 345.462C95.7237 344.674 95.5487 344.06 95.3444 343.476C94.0898 339.972 92.806 336.438 91.4931 332.933C90.9971 331.648 91.1429 330.626 92.5143 330.042C97.0659 328.027 101.588 326.012 106.14 323.997C107.336 323.471 108.27 323.734 108.912 324.96C109.67 326.421 110.487 327.852 111.275 329.283L115.681 337.343L129.336 329.312C127.06 325.603 124.93 322.128 122.8 318.623C121.37 316.316 121.429 315.907 123.559 314.301C127.06 311.672 130.59 309.044 134.121 306.445C135.959 305.072 136.571 305.13 138.059 306.941C140.773 310.241 143.457 313.541 146.258 316.958C149.847 313.658 153.29 310.416 156.82 307.292C157.841 306.386 157.725 305.802 156.879 304.897C154.165 301.976 151.539 298.997 148.826 296.048C147.746 294.879 147.775 293.886 148.913 292.718C151.919 289.593 154.836 286.41 157.812 283.256C159.329 281.65 159.825 281.62 161.518 282.876C164.348 284.979 167.149 287.082 169.95 289.184C170.592 289.652 171.234 290.119 171.963 290.645L181.854 277.999C181.241 277.503 180.775 277.152 180.308 276.802C177.127 274.524 173.947 272.246 170.738 269.968C169.016 268.741 168.87 268.186 169.921 266.317C172.051 262.55 174.21 258.782 176.34 255.015C177.594 252.824 178.149 252.649 180.395 253.701C183.838 255.307 187.339 256.825 190.753 258.461C191.891 259.016 192.416 258.782 192.883 257.672C194.138 254.84 195.451 252.036 196.734 249.203C197.318 247.889 197.931 246.604 198.543 245.231C194.196 243.391 190.082 241.639 185.91 239.887C184.597 239.332 184.13 238.514 184.626 237.112C186.172 232.585 187.689 228.029 189.236 223.473C189.965 221.371 190.49 221.079 192.591 221.575C196.501 222.539 200.411 223.503 204.32 224.525C205.254 224.759 205.692 224.612 205.867 223.561C206.217 221.604 206.713 219.677 207.121 217.72C207.705 215.004 208.259 212.259 208.843 209.514C208.259 209.368 207.938 209.251 207.617 209.192C203.591 208.433 199.594 207.703 195.567 206.944C194.225 206.71 193.233 206.097 193.35 204.52C193.729 199.847 194.167 195.174 194.488 190.501C194.604 188.778 195.509 188.106 197.055 188.077C198.397 188.048 199.74 188.077 201.082 188.077H211.119V172.92C210.477 172.861 210.097 172.803 209.689 172.803C205.604 172.745 201.49 172.715 197.405 172.657C195.071 172.628 194.779 172.365 194.546 170.116C194.196 166.436 193.875 162.757 193.466 159.106C192.97 154.462 192.941 154.492 197.493 153.528C201.228 152.71 204.962 151.834 208.814 150.958L205.954 135.917C201.228 137.027 196.763 138.049 192.358 139.13C190.753 139.509 189.819 139.071 189.294 137.465C187.923 133.055 186.552 128.645 185.064 124.265C184.48 122.571 185.064 121.607 186.581 120.935C189.353 119.709 192.095 118.394 194.867 117.109C196.238 116.438 197.58 115.737 199.068 115.036Z" fill="#6750A4"/>
<path d="M34.9475 301.886C-32.8305 301.711 -86.6036 246.543 -86.6328 180.277C-86.662 113.69 -32.6555 58.7263 34.6849 58.5803C101.471 58.4634 156.528 112.288 156.528 180.248C156.499 247.974 101.734 301.711 34.9475 301.886ZM34.8308 298.82C100.041 298.936 152.18 246.338 153.493 182.876C154.894 115.325 100.391 62.2893 36.4647 61.5884C-29.3293 60.8582 -83.6276 113.924 -83.6276 180.189C-83.6276 246.426 -29.8253 298.878 34.8308 298.82Z" fill="#6750A4"/>
<path d="M-2.92355 53.7383L-6.16219 54.7605C-7.44597 50.7302 -8.70058 46.846 -9.86765 42.9325C-10.6846 40.2165 -10.6846 40.5961 -12.7562 41.2971C-13.3397 41.5015 -13.9816 41.5891 -14.8277 41.7935L-9.16741 55.5198L-12.1726 56.8049L-13.2522 54.7021C-15.4113 55.8995 -17.3661 57.2721 -19.5252 58.0899C-21.8302 58.966 -23.7267 57.535 -24.3978 55.1402C-24.5437 54.5561 -25.1856 54.0888 -25.5649 53.5339C-26.2359 52.5701 -27.3155 51.6356 -27.403 50.6134C-27.4614 49.8541 -26.3526 48.8611 -25.5649 48.1894C-24.9813 47.6637 -24.0477 47.5761 -23.3766 47.138C-23.0556 46.9336 -22.9681 46.3495 -22.793 45.9406C-23.1723 45.8238 -23.6392 45.5026 -23.9309 45.6194C-26.907 46.9044 -29.883 48.2478 -33.0633 49.7081L-26.0317 62.9671L-28.9786 64.5733L-35.8351 51.84C-36.0102 51.8108 -36.2144 51.8108 -36.3895 51.84C-40.0366 53.3003 -40.0074 53.2711 -37.9359 56.542C-35.8935 59.6961 -33.9095 62.8503 -31.8671 66.092L-34.6681 67.9319L-37.5566 63.6388C-38.1109 65.8 -38.5486 67.6107 -39.0154 69.3922C-39.6281 71.6993 -40.095 71.933 -42.7209 71.2905L-41.1453 65.946C-44.6174 66.1796 -46.0762 63.814 -47.4476 61.3608C-48.177 60.0758 -48.9064 58.7616 -50.5987 60.4847L-51.7949 58.8784L-37.9942 50.0877L-43.7713 49.0071C-43.6546 46.3203 -43.0418 45.9114 -40.6493 46.7292C-39.9783 46.992 -39.2488 47.0796 -38.5486 46.9628L-42.2249 44.8893C-41.3496 42.3776 -40.5326 42.0856 -38.4611 43.429C-36.7396 44.5388 -35.0474 45.6778 -33.2967 46.7292C-32.8883 46.992 -32.188 47.138 -31.7504 46.9628C-25.8858 44.5096 -20.0796 41.9396 -14.215 39.4572C-13.0188 38.9607 -11.7058 38.7854 -9.92601 38.3474L-17.0452 33.7622C-16.3741 31.2506 -15.5863 30.9293 -13.6898 32.3604C-12.2018 33.4702 -10.6263 34.5215 -9.22577 35.7773C-7.82527 37.0332 -6.48314 37.588 -4.70334 36.7411C-4.09063 36.4491 -3.39038 36.3906 -2.77766 36.2154C-2.74848 36.0986 -2.74848 35.9818 -2.74848 35.865C-5.54947 29.5859 0.227573 26.9283 4.66247 28.038C7.49263 28.7682 10.1477 30.2576 12.7737 31.6302C14.0574 32.302 15.137 32.6816 16.6834 32.5356C22.2561 32.0391 27.8873 31.8347 33.4601 31.4842C34.102 31.455 34.7147 31.3674 35.1815 31.3382C35.3274 29.9364 35.2107 28.5929 35.6192 27.4247C36.6112 24.6211 40.3459 23.7157 42.5633 25.7893C43.8471 27.0451 44.9266 28.5345 45.6852 30.17C46.3271 31.4842 46.9398 32.3312 48.4862 32.1559C48.7488 32.1267 49.0406 32.302 49.3615 32.3896V34.1127H46.9982L45.8895 48.7735L42.505 48.5691L43.5845 33.6746H33.0224V35.865C33.8686 35.865 34.7147 35.865 35.5608 35.865C38.712 35.8942 40.7835 38.6978 39.6748 41.6475C39.0913 43.1078 38.2743 44.4804 37.2239 45.6486C36.0277 47.0212 34.9481 45.8238 33.8394 44.9769C34.3062 44.3928 34.7731 43.8379 35.2107 43.2538C35.3858 43.0202 35.5317 42.7573 35.6484 42.4945C36.3778 41.2387 36.8446 39.9244 35.9985 38.5518C35.8234 38.2598 35.0648 37.9969 34.8314 38.1429C33.4893 38.9315 33.0808 40.2165 33.11 41.7351C33.1392 43.8379 33.11 45.9406 33.11 48.2186L29.7254 48.4523V45.0937C24.3569 44.7432 22.5771 43.4582 22.6938 40.1289C22.7813 37.0916 24.9113 35.6605 29.3462 35.6313V33.5286L17.5587 34.1419L19.7469 48.9195L16.4208 49.562L14.1158 34.9012L11.4899 35.3101C11.84 37.8509 12.1901 40.3041 12.5111 42.7865C12.7445 44.6264 11.6941 45.5026 9.94349 44.8309C9.12653 44.4804 8.3971 43.9839 7.78439 43.3706C5.80035 41.5599 5.97542 40.7714 8.65969 39.8952L8.10534 35.7481L1.30711 37.1208L4.77917 51.6064L1.48217 52.4533L-2.01906 38.1721L-7.32927 39.574L-2.92355 53.7383ZM-17.6579 51.402C-18.5332 51.8108 -19.496 52.0153 -20.0796 52.5701C-20.5756 53.0082 -21.0132 54.0012 -20.8382 54.5269C-20.6631 55.0526 -19.6711 55.6075 -19.0292 55.6367C-17.6871 55.7243 -14.5068 51.7524 -14.9444 50.4966C-15.8198 48.0434 -16.8993 45.6778 -17.9789 43.137L-19.9045 44.0131L-18.6499 47.3425C-20.313 48.0434 -21.8594 48.6567 -23.3766 49.416C-23.7267 49.5912 -23.7851 50.2922 -23.9601 50.7594C-23.4641 50.9347 -22.9389 51.2851 -22.5013 51.1975C-21.8302 51.0223 -21.1591 50.7594 -20.5756 50.3798C-19.2918 49.7373 -18.329 49.8249 -17.6579 51.402ZM10.1185 33.4702C7.34673 31.7179 4.92505 30.3452 2.03653 30.3452C1.36547 30.3452 0.227566 30.9877 0.169212 31.455C-0.00584793 32.594 0.256741 33.8206 0.577686 34.9304C0.636044 35.1056 1.89066 35.0472 2.56173 34.9596C3.64127 34.7844 4.69164 34.4631 5.77119 34.2587C7.08415 33.9958 8.36793 33.7914 10.1185 33.4702ZM-45.8137 57.535C-44.8216 59.112 -44.0047 60.6599 -42.896 61.9741C-42.3999 62.5582 -41.3496 62.675 -40.5618 62.9963C-40.3284 62.0033 -39.6281 60.8059 -39.9199 60.0174C-40.5326 58.4403 -41.6705 57.0677 -42.6917 55.4906L-45.8137 57.535ZM29.6379 39.9244C29.8713 38.727 29.492 37.9969 28.1207 38.0553C26.516 38.1137 26.3118 39.3403 26.2826 40.5085C26.2534 41.6767 26.6035 43.0786 27.9457 42.9325C29.3753 42.7573 29.9005 41.3847 29.6379 39.9244ZM42.9426 31.8347L43.2636 31.3674L39.9957 26.8114C38.5369 28.3885 38.4202 30.9877 39.5581 31.3382C40.6668 31.6595 41.8339 31.6887 42.9426 31.8347Z" fill="#6750A4"/>
<path d="M100.45 66.2047L97.5036 64.54L99.7211 60.4513C97.737 59.9549 95.7822 59.692 94.0316 59.0203C91.639 58.115 90.5303 56.0122 90.1802 53.559C89.9468 51.7775 88.4004 50.4633 86.6206 50.4925C86.0079 50.4925 85.3952 50.6385 84.4907 50.7261L86.2997 57.4432C84.0822 58.6991 83.0318 58.3194 82.5067 55.9246C81.7772 52.6828 81.3104 49.3827 80.6102 46.1117C80.3184 44.8559 81.077 44.5347 81.8648 44.6223C82.6234 44.7391 83.3236 45.1772 83.7904 45.7905C84.1697 46.3162 84.0239 47.1923 84.1406 47.9225L84.7533 48.0685L86.6498 43.2205L78.2468 39.9495L74.483 54.3475L71.2152 53.4714L73.1992 45.4108L67.1596 44.6223L66.8386 45.1772L69.3187 51.4854C67.5389 53.0625 66.1968 52.8289 65.4382 50.6093C64.2419 47.0755 63.1623 43.5125 61.8786 39.5114C63.3082 39.5114 64.592 39.1318 65.2631 39.6283C65.9342 40.1248 65.905 41.4682 66.1676 42.4319L66.7511 42.4611L68.1224 37.4087L61.5576 35.6564L61.9953 33.8457C72.7907 36.2989 83.3528 39.0442 93.4188 43.7754C93.3313 44.0674 93.2438 44.3595 93.1271 44.5931C93.0104 44.8267 92.8645 45.0896 92.6894 45.3816L89.8593 44.4179L88.167 48.711L92.2226 50.3172C91.9016 47.0171 92.8061 45.294 95.1111 45.1772C97.1243 45.0604 98.8749 45.9657 100.1 47.6304C101.209 49.1491 101.063 50.8721 100.305 52.4784C99.2834 54.6396 97.2994 55.5157 94.936 54.99C94.4984 54.9024 94.0316 54.8732 93.5355 54.7856C94.44 57.5016 96.1031 58.2318 98.7582 57.122C99.3418 56.8883 99.8961 56.4795 100.48 56.275C100.976 56.0998 101.559 56.1582 102.172 56.0998C102.289 55.8954 102.464 55.6617 102.58 55.3989C103.281 54.1723 103.952 52.9749 104.71 51.6023L102.376 50.0836L103.164 48.4481C113.113 53.5006 122.041 59.838 130.649 66.8472L129.598 68.3367L127.643 67.0224L118.657 78.7336L116.002 76.66L121.545 69.3004L118.803 67.1685C118.394 67.6942 117.957 68.1906 117.49 68.6579C117.081 69.0376 116.381 69.6509 116.177 69.5341C115.506 69.1544 114.718 68.5703 114.543 67.8986C114.28 66.7596 114.251 65.5914 114.426 64.4232C114.63 62.7001 115.535 62.3205 116.935 63.3426C118.89 64.7445 120.787 66.2047 122.771 67.6941L124.988 64.8613L114.572 57.1804L106.49 69.7969L103.602 68.0154L111.509 55.4865L107.803 53.2377L100.45 66.2047ZM73.6952 43.8046L74.8915 39.2486L71.3902 38.3433L70.2815 42.87L73.6952 43.8046ZM96.3949 51.9235C97.562 51.281 97.9996 49.8208 97.3869 48.6234C97.1827 48.2729 96.5699 48.1269 96.1615 47.8932C95.9572 48.4773 95.5779 49.0906 95.6363 49.6455C95.6946 50.4341 96.1323 51.1934 96.3949 51.9235Z" fill="#6750A4"/>
<path d="M158.513 136.471L157.288 133.317L171.38 128.119L167.208 118.306L164.874 119.386C165.282 120.175 165.632 120.847 165.953 121.489C167.354 124.439 165.603 127.622 162.335 127.914C161.168 128.002 160.001 127.914 158.863 127.651C156.558 127.184 156.179 126.279 157.054 124.234C158.717 124.322 160.351 124.614 161.897 124.41C162.656 124.293 163.269 123.241 163.94 122.599C163.123 122.19 162.306 121.518 161.46 121.489C160.526 121.46 159.563 121.956 158.659 122.365C157.054 123.066 155.508 123.884 153.757 124.731L152.24 121.723L155.333 120.146C154.457 118.16 152.998 116.232 154.399 114.071C155.041 113.107 155.916 112.319 156.937 111.793C159.534 110.566 161.518 111.851 163.706 116.057L165.661 115.239L160.468 105.047L156.821 107.266L153.349 102.126C151.861 103.762 151.744 104.667 152.794 105.602C155.128 107.704 155.508 108.61 154.574 109.924C153.174 111.881 149.935 112.728 147.951 111.472C146.025 110.245 144.683 108.288 144.8 106.098C144.946 103.47 145.821 100.87 146.463 98.3003C146.813 96.9277 147.922 97.3074 148.739 97.6578C149.556 98.0083 149.789 98.6508 149.41 99.673C148.593 101.747 147.98 103.849 147.513 106.01C147.338 106.828 147.776 107.967 148.301 108.668C148.826 109.369 150.577 108.814 151.802 107.792C151.452 107.587 151.102 107.354 150.781 107.091C148.534 104.959 148.943 100.637 151.51 98.9136C152.473 98.2711 153.319 98.5632 153.932 99.4685C154.807 100.724 155.624 101.98 156.616 103.411L158.6 102.126L146.142 84.9537C145.325 85.567 144.916 85.8591 144.508 86.1511C144.1 86.4432 143.749 86.6768 143.108 87.1149C144.1 87.9618 144.741 88.6043 145.471 89.1592C147.922 91.0283 148.389 93.8612 146.288 96.1392C145.15 97.3074 143.837 98.2711 142.349 98.9721C139.665 100.228 139.052 99.819 138.556 96.8401C139.84 96.3728 141.211 96.0516 142.407 95.4091C143.253 94.9126 143.954 94.1825 144.45 93.3355C144.683 92.9559 144.391 92.2257 144.333 91.6416C143.691 91.9337 142.932 92.1089 142.466 92.5762C142.145 92.9267 142.232 93.686 142.115 94.2701C141.094 94.6497 140.015 94.971 139.46 93.6568C138.439 91.262 140.482 90.1522 141.736 88.6627L138.118 87.6698L136.426 95.263C133.946 95.0878 133.304 94.3869 133.917 91.9629C134.705 88.7211 135.667 85.5378 136.601 82.3545C136.776 81.7412 137.126 81.2155 137.564 80.2225C138.498 80.9819 139.635 81.4783 139.898 82.2669C140.161 83.0554 139.46 84.0776 139.081 85.3042C141.211 85.0121 142.086 83.4935 143.487 82.5005L138.877 77.0684L140.19 75.8418C152.532 88.8672 162.86 103.207 169.775 119.591C171.263 119.123 172.489 118.452 173.743 118.393C176.894 118.189 179.17 121.372 178.061 124.38C177.624 125.578 177.011 126.717 176.194 127.739C174.91 129.316 173.364 130.689 175.173 132.937L173.218 133.667C172.78 131.243 171.497 131.652 169.863 132.295C166.186 133.755 162.452 135.011 158.513 136.471ZM161.46 117.488L161.693 116.845C161.11 116.203 160.555 115.064 159.913 115.006C158.951 114.918 157.871 115.473 156.967 115.969C156.587 116.174 156.295 117.05 156.412 117.459C156.529 117.868 157.288 118.364 157.696 118.335C159.009 118.189 160.205 117.78 161.46 117.488ZM172.722 126.746L173.393 126.863L176.165 122.19C174.619 121.022 173.452 121.635 172.518 122.54C170.913 124.03 172.985 125.286 172.722 126.746Z" fill="#6750A4"/>
<path d="M82.2734 319.296C79.239 320.319 79.239 320.319 77.5467 318.041C76.1754 316.201 74.8041 314.332 73.4036 312.492L73.0243 312.696L75.5627 321.282L73.2286 322.188C72.7909 320.786 72.3532 319.559 71.9739 318.303C71.1278 315.5 70.2525 312.725 69.4647 309.892C69.3188 309.338 69.4647 308.169 69.6106 308.14C70.6318 307.965 71.7113 306.768 72.7617 308.228C74.2206 310.272 75.7378 312.258 77.255 314.302C77.4009 314.478 77.5467 314.624 78.1011 314.653L75.6794 306.329L78.1011 305.512L82.2734 319.296Z" fill="#6750A4"/>
<path d="M156.355 249.583C159.419 248.239 161.082 251.043 163.503 251.423C162.191 254.255 162.19 254.255 159.681 252.824C159.039 252.415 158.339 252.065 157.639 251.802C156.384 251.393 155.742 252.299 155.421 253.233C155.305 253.613 155.801 254.431 156.238 254.752C157.405 255.628 158.689 256.329 160.09 257.176L158.689 259.571L146.289 252.153C147.427 250.313 148.331 248.444 149.644 246.925C150.315 246.166 151.803 245.582 152.796 245.728C154.78 245.961 156.209 247.217 156.355 249.583ZM153.116 252.912C154.604 250.868 154.575 249.699 153.204 248.882C151.745 247.976 150.87 248.444 149.644 250.809L153.116 252.912Z" fill="#6750A4"/>
<path d="M138.206 284.891L136.309 286.381L126.477 275.925C127.498 274.932 128.957 273.443 130.532 272.1C131.583 271.165 132.866 271.107 134.121 271.778C135.784 272.684 136.63 274.348 136.426 276.363C139.519 275.604 140.482 278.904 142.816 279.693C141.298 282.234 140.948 282.292 138.848 280.365C138.322 279.81 137.739 279.313 137.126 278.875C136.017 278.174 135.259 278.904 134.529 279.634C133.654 280.54 134.559 280.919 135.055 281.445C136.017 282.409 136.951 283.343 137.885 284.307C138.06 284.482 138.147 284.687 138.206 284.891ZM132.925 279.313C133.421 277.882 134.063 276.86 134.004 275.867C133.975 275.283 132.808 274.319 132.195 274.348C131.262 274.407 130.386 275.166 129.394 275.692L132.925 279.313Z" fill="#6750A4"/>
<path d="M61.5871 324.696L58.5527 310.59L61.2078 310.006L62.55 315.35L65.847 314.678L64.8258 309.246L67.5101 308.662L70.5736 322.739L67.8602 323.352L66.4597 317.394C66.343 317.307 66.2263 317.248 66.0804 317.219C62.2582 317.949 63.0752 317.219 63.6004 320.841C63.7462 321.863 64.038 322.885 64.3006 324.082L61.5871 324.696Z" fill="#6750A4"/>
<path d="M168.958 240.471C168.52 242.34 167.791 243.509 165.661 243.217C164.289 243.041 162.889 243.187 161.489 243.187L161.197 243.655C161.868 244.268 162.481 244.969 163.21 245.465C164.027 246.02 164.931 246.371 165.953 246.896L164.698 249.408L151.802 242.983L153.027 240.501L158.25 242.983C157.258 241.289 156.674 239.887 155.77 238.777C154.457 237.171 154.982 235.945 156.207 234.484C157.141 236.003 158.075 237.405 158.863 238.894C159.475 240.062 160.234 240.588 161.605 240.471C163.648 240.296 165.69 240.325 167.732 240.296C168.141 240.325 168.549 240.384 168.958 240.471Z" fill="#6750A4"/>
<path d="M4.1082 318.625C4.34161 317.515 4.69173 315.324 5.3628 313.222C6.20893 310.535 7.95955 309.629 10.8189 310.126C13.3281 310.564 14.7578 312.258 14.5535 315.003C14.3785 317.164 13.97 319.267 13.3865 321.341C12.5403 324.407 10.7605 325.4 7.72614 324.845C5.15857 324.378 4.02066 322.801 4.1082 318.625ZM6.70495 319.91C6.90919 321.136 6.58823 322.567 8.36802 322.83C10.1478 323.093 10.4979 321.633 10.7605 320.406C11.1982 318.479 11.5483 316.522 11.7817 314.565C11.8984 313.514 11.7234 312.404 10.3521 312.141C9.03911 311.907 8.36802 312.696 8.07625 313.806C7.58024 315.85 7.17178 317.894 6.70495 319.91Z" fill="#6750A4"/>
<path d="M86.5916 302.678C87.1167 303.087 88.5464 303.729 89.13 304.81C90.3554 307.263 91.3474 309.804 92.106 312.403C92.6604 314.156 91.61 315.791 89.8886 316.726C87.7586 317.865 85.7746 317.894 84.5492 316.521C82.1567 313.834 80.7562 310.417 80.5811 306.825C80.4352 304.489 83.0028 302.649 86.5916 302.678ZM90.0053 313.396C88.6923 310.622 87.5252 307.993 86.1831 305.453C85.9788 305.073 84.8701 304.868 84.3741 305.073C83.8781 305.277 83.1779 306.241 83.2946 306.621C84.2282 309.337 85.2786 312.024 86.4748 314.652C86.6207 315.003 87.7586 315.236 88.2838 315.061C88.8674 314.857 89.2758 314.126 90.0053 313.396Z" fill="#6750A4"/>
<path d="M143.456 276.829C142.843 276.537 141.676 276.215 140.801 275.514C139.138 274.259 137.562 272.857 136.103 271.338C134.323 269.44 134.353 267.395 135.928 265.526C137.912 263.19 139.721 262.664 141.997 264.3C144.098 265.848 146.082 267.571 147.891 269.44C149.204 270.754 149.262 272.506 148.182 274.113C147.19 275.602 146.023 276.887 143.456 276.829ZM144.769 274.434C145.206 274.083 145.936 273.821 146.111 273.353C146.315 272.798 146.344 271.835 145.994 271.484C144.244 269.703 142.347 268.067 140.363 266.548C139.78 266.14 138.321 266.227 137.737 266.695C136.774 267.483 137.212 268.68 138.058 269.44C139.692 270.929 141.413 272.331 143.106 273.733C143.543 274.054 144.069 274.142 144.769 274.434Z" fill="#6750A4"/>
<path d="M151.074 267.776C150.695 267.688 149.965 267.688 149.469 267.367C147.193 265.848 144.83 264.388 142.817 262.548C140.979 260.883 141.124 258.956 142.671 256.853C144.188 254.809 146.026 254.079 148.156 255.305C150.519 256.707 152.737 258.313 154.779 260.124C156.121 261.292 156.326 262.986 155.421 264.622C154.517 266.315 153.466 267.746 151.074 267.776ZM151.978 265.264C152.387 264.943 153.175 264.592 153.291 264.096C153.437 263.483 153.262 262.46 152.824 262.081C150.957 260.533 148.944 259.102 146.931 257.729C146.026 257.116 145.034 257.116 144.305 258.138C143.575 259.16 144.013 260.124 144.801 260.767C146.581 262.168 148.448 263.453 150.315 264.768C150.695 265.001 151.22 265.03 151.978 265.264Z" fill="#6750A4"/>
<path d="M111.013 303.731C111.071 306.067 109.671 307.119 108.037 307.936C106.432 308.725 104.827 308.783 103.456 307.469C101.18 305.25 99.5464 302.475 98.7003 299.379C98.1168 297.277 99.0504 295.787 101.268 294.561C103.281 293.451 104.827 293.626 106.403 295.086C108.562 297.043 111.042 301.862 111.013 303.731ZM108.65 304.403C107.453 301.424 106.257 298.708 104.04 296.634C103.66 296.284 102.668 296.284 102.114 296.547C101.676 296.751 101.18 297.627 101.297 298.065C102.026 301.015 103.602 303.731 105.819 305.804C106.14 306.097 107.074 306.038 107.541 305.804C108.008 305.571 108.27 304.87 108.65 304.403Z" fill="#6750A4"/>
<path d="M116.236 290.147L114.222 291.52C113.931 291.286 113.697 290.994 113.376 290.906C112.676 290.76 111.684 290.41 111.334 290.702C110.896 291.14 110.575 292.308 110.838 292.805C112.063 294.966 113.464 297.039 115.01 298.996C115.419 299.493 116.615 299.376 117.461 299.522C117.607 298.646 117.899 297.77 117.811 296.923C117.753 296.368 117.169 295.871 116.761 295.287L115.214 296.28L113.989 294.703L117.782 292.045L122.275 298.529L119.62 299.463C118.278 302.91 115.098 303.64 112.443 300.486C110.779 298.47 109.35 296.251 108.27 293.885C107.249 291.666 108.387 289.738 110.809 288.453C112.939 287.373 114.456 287.811 116.236 290.147Z" fill="#6750A4"/>
<path d="M172.225 225.811L173.975 220.788L176.076 221.518L173.567 229.315L159.854 224.847L162.363 217.225L164.463 217.926L162.975 222.89L166.185 223.942L167.848 219.415L169.92 219.97L168.519 224.73L172.225 225.811Z" fill="#6750A4"/>
<path d="M-7.27106 305.799L0.373305 308.135L-0.29777 310.238L-5.22867 308.924L-6.22069 312.107L-1.63991 313.684L-2.22345 315.728L-6.92093 314.531L-8.02966 318.211L-2.92369 319.846L-3.6823 321.978L-11.4434 319.584L-7.27106 305.799Z" fill="#6750A4"/>
<path d="M170.825 230.334L172.896 231.181L169.803 238.774L156.44 233.342L159.416 225.982L161.546 226.771L159.679 231.561L162.859 232.875L164.756 228.494L166.827 229.253L165.077 233.809L168.695 235.27L170.825 230.334Z" fill="#6750A4"/>
<path d="M187.368 182.237C188.097 182.587 188.914 182.821 189.585 183.259C191.569 184.632 192.765 184.836 194.924 184.018L195.07 184.427C194.253 184.719 193.436 185.245 192.59 185.245C188.447 185.303 184.275 185.216 180.132 185.216C173.946 185.216 167.761 185.245 161.546 185.186C160.7 185.186 159.183 185.858 159.27 184.281C159.299 183.697 160.787 182.762 161.663 182.704C164.201 182.529 166.769 182.704 169.336 182.792C170.912 182.85 172.808 183.639 172.896 181.127L176.193 182.967L175.814 185.216L181.357 181.799C181.328 182.821 181.62 183.434 183.166 183.142C184.713 182.85 186.405 183.084 188.185 182.762L187.368 182.237Z" fill="#6750A4"/>
<path d="M48.253 326.539L40.2877 327.035L39.4707 312.666L47.261 312.141L47.5819 314.302L42.5635 314.798V318.098C43.5263 318.157 44.46 318.128 45.4228 318.069C47.4944 317.836 47.4944 317.777 47.5819 320.143L42.9428 320.581V324.524L48.253 324.231V326.539Z" fill="#6750A4"/>
<path d="M57.823 315.589L55.5181 315.822C55.4014 315.735 55.3138 315.618 55.2263 315.501C54.9345 314.362 54.8178 313.048 53.1547 313.223C51.4333 313.428 51.6667 314.859 51.7251 315.939C51.871 317.925 52.1627 319.882 52.542 321.839C52.7463 322.948 53.1256 324.058 54.6719 323.824C56.16 323.62 56.0141 322.452 56.0724 321.43C56.1016 321.021 56.0724 320.612 56.0724 320.086L58.6108 319.677C59.7487 323.941 56.9769 326.949 52.8921 325.84C51.7542 325.46 50.8206 324.642 50.2954 323.562C49.0116 320.729 48.6031 317.604 49.0991 314.537C49.5076 312.026 51.5208 310.799 54.526 311.091C56.656 311.325 57.8814 312.873 57.823 315.589Z" fill="#6750A4"/>
<path d="M16.6254 311.381L24.474 312.286L24.3281 314.447L19.2513 314.068L18.7553 317.397L23.6278 318.069L23.3652 320.259L18.6094 319.85L17.8216 325.983L15.0498 325.779L16.6254 311.381Z" fill="#6750A4"/>
<path d="M122.187 280.219C123.704 284.979 124.025 290.119 128.46 293.478L125.98 295.522C123.587 290.586 118.656 289.097 114.396 286.644C116.205 284.395 116.264 284.366 118.481 285.738C119.415 286.293 120.319 286.848 121.72 287.695C121.224 286.235 120.903 285.242 120.553 284.278C119.648 281.796 119.619 281.796 122.187 280.219Z" fill="#6750A4"/>
<path d="M35.3569 315.09V326.889H32.4975V315.032L29.5215 314.769V312.666H38.4788V314.886L35.3569 315.09Z" fill="#6750A4"/>
<path d="M95.6656 314.039L89.3926 301.072L91.8434 299.758L97.1537 310.593L101.822 308.519L102.843 310.476L95.6656 314.039Z" fill="#6750A4"/>
<path d="M167.296 174.997C166.566 175.931 166.041 176.837 167.208 177.304L170.563 174.559C171.439 175.902 171.234 176.691 169.863 176.691C168.842 176.691 168.404 176.749 168.375 177.83C168.375 178.005 167.967 178.151 168.142 178.034L169.717 179.319L169.104 180.195H160.789C160.964 180.108 161.11 180.02 161.256 179.903C162.248 179.115 164.699 180.429 164.378 177.771C164.203 176.399 163.94 175.055 163.707 173.682L163.211 173.77L164.757 171.463C166.245 173.244 163.473 176.194 166.216 177.684L166.712 174.763L167.296 174.997Z" fill="#6750A4"/>
<path d="M78.3613 35.3064L79.2075 32.7363L82.9129 33.9337L82.0084 36.4746L78.3613 35.3064Z" fill="#6750A4"/>
<path d="M141.094 108.871C141.677 108.492 142.057 108.258 142.465 108.024C142.728 107.908 142.961 107.791 143.253 107.703L144.974 110.682L142.903 111.938L141.094 108.871Z" fill="#6750A4"/>
<path d="M170.036 166.641L168.723 167.458C166.973 166.027 166.914 164.976 168.432 164.158C169.278 163.72 169.686 163.662 169.657 164.801C169.628 165.356 169.861 165.911 170.036 166.641Z" fill="#6750A4"/>
<path d="M187.398 182.235L184.83 180.629V176.979C185.472 178.935 186.376 180.571 188.565 181.038L187.368 180.95C187.368 181.418 187.368 181.827 187.398 182.235Z" fill="#6750A4"/>
<path d="M174.385 168.631L173.714 165.885L174.385 165.447L175.64 168.368L174.385 168.631Z" fill="#6750A4"/>
<path d="M190.957 180.66L194.225 181.828C194.166 183.551 193.408 183.99 191.803 183.172L194.108 182.909L190.957 180.66Z" fill="#6750A4"/>
<path d="M-39.2786 215.734C-40.0372 215.793 -40.7958 215.763 -41.5544 215.705C-42.0504 215.617 -42.5464 215.296 -43.0133 215.063C-42.7215 214.624 -42.5464 214.04 -42.138 213.748C-38.4325 211.295 -36.7402 207.82 -36.9153 203.468C-37.1195 198.357 -40.3582 194.736 -45.8143 193.305C-46.7771 193.042 -47.7983 193.013 -48.732 192.721C-49.228 192.546 -49.6073 192.02 -50.0449 191.669C-49.6073 191.377 -49.1988 190.969 -48.7028 190.852C-44.3262 189.8 -42.138 186.529 -40.7083 182.704C-39.3953 179.111 -40.0956 175.636 -42.9549 173.037C-44.6472 171.489 -46.8063 170.467 -48.732 169.123C-49.228 168.773 -49.6073 168.218 -50.0157 167.751C-49.4322 167.575 -48.8195 167.225 -48.2359 167.254C-43.5385 167.517 -38.1116 163.136 -37.032 158.23C-36.0983 153.995 -37.7614 150.695 -40.5041 147.716C-41.0876 147.074 -41.8462 146.577 -42.4297 145.935C-42.7507 145.555 -42.8382 144.971 -43.0425 144.474C-42.5756 144.328 -42.1088 144.095 -41.642 144.095C-39.6579 144.066 -37.6447 144.416 -35.719 144.095C-28.5707 142.839 -25.0986 136.852 -27.4036 129.96C-27.9288 128.383 -28.8916 126.922 -29.5919 125.374C-29.7961 124.878 -29.7669 124.294 -29.8545 123.768C-29.3001 123.768 -28.7166 123.564 -28.2497 123.739C-25.4196 124.761 -22.6186 125.608 -19.555 125.228C-12.9027 124.411 -9.92663 118.628 -10.8019 112.524C-10.977 111.385 -11.4146 110.275 -11.6189 109.137C-11.7064 108.64 -11.5314 108.085 -11.473 107.53C-10.9478 107.676 -10.3059 107.676 -9.92663 107.998C-7.53412 110.071 -4.90819 111.59 -1.72791 112.086C3.11547 112.846 7.05435 110.743 8.65908 106.099C9.47603 103.704 9.6511 101.076 10.1763 98.5643C10.293 98.0095 10.7015 97.513 10.9641 96.9873C11.4017 97.3669 12.0436 97.659 12.277 98.1555C14.086 101.602 16.6827 104.084 20.5049 105.019C26.5446 106.508 32.3508 102.449 33.6054 95.9067C33.6054 95.7315 33.6346 95.5562 33.6929 95.381C34.0139 94.7677 34.364 94.1836 34.7141 93.5703C35.1226 94.1544 35.6186 94.6801 35.9103 95.2934C36.4647 96.4616 36.7857 97.7174 37.3692 98.8564C41.3373 106.508 49.4776 107.647 55.4589 101.426C56.3342 100.492 57.0053 99.3821 57.8514 98.4183C58.2599 97.951 58.8726 97.659 59.3686 97.3085C59.5437 97.8634 59.923 98.4475 59.8938 99.0024C59.7187 102.069 60.098 104.989 61.7611 107.618C64.7955 112.378 70.2516 113.692 75.6202 110.918C77.079 110.159 78.3336 109.107 79.7341 108.26C80.2301 107.968 80.8428 107.881 81.3972 107.705C81.3972 108.319 81.5723 109.049 81.3389 109.545C78.3628 116.058 81.2513 122.775 87.9912 124.878C91.5216 125.988 94.7894 125.199 97.9697 123.564C98.4074 123.33 99.0784 123.535 99.662 123.564C99.5161 124.089 99.4869 124.703 99.166 125.082C95.6939 129.288 95.1395 134.662 97.7946 139.13C100.187 143.219 104.797 145 110.195 143.978C110.487 143.92 110.778 143.744 111.041 143.773C111.595 143.832 112.121 143.92 112.646 144.036C112.412 144.562 112.266 145.175 111.916 145.613C110.399 147.599 108.386 149.293 107.365 151.513C103.922 158.902 109.349 166.816 117.489 166.729C118.131 166.729 118.773 167.196 119.386 167.429C118.919 167.926 118.51 168.568 117.956 168.89C115.359 170.292 112.879 171.81 111.187 174.351C109.349 177.125 109.144 180.075 110.37 183.054C111.858 186.646 114.28 189.391 118.102 190.735C118.539 190.881 118.831 191.465 119.181 191.845C118.715 192.108 118.277 192.575 117.81 192.633C113.404 193.276 109.786 195.203 107.54 199.175C104.885 203.936 106.198 209.484 110.808 213.544C111.07 213.778 111.449 213.924 111.624 214.216C111.887 214.741 112.091 215.267 112.296 215.793C111.77 215.88 111.216 216.143 110.72 216.026C106.606 215.004 102.784 215.442 99.5452 218.363C95.8689 221.721 95.1395 227.504 97.7071 232.293C98.1739 233.17 98.8158 233.958 99.2827 234.834C99.4869 235.214 99.3702 235.769 99.4285 236.236C98.9617 236.236 98.4657 236.324 97.9989 236.236C95.5188 235.623 93.0972 234.484 90.6171 234.367C84.8401 234.104 80.697 238.076 80.4052 243.888C80.2885 246.137 80.7261 248.415 80.8428 250.693C80.872 251.189 80.6094 251.715 80.4927 252.24C79.9967 252.036 79.384 251.978 79.0339 251.656C76.6997 249.524 74.1613 247.889 71.0102 247.568C65.6125 246.983 61.5277 249.816 60.0105 255.278C59.5145 257.059 59.4853 258.987 59.1644 260.797C59.0768 261.352 58.6684 261.849 58.4058 262.374C57.9681 262.024 57.4137 261.79 57.1512 261.352C54.8462 257.731 51.841 255.073 47.4352 254.577C42.4752 254.022 38.828 256.212 36.7857 260.827C36.3188 261.907 36.0854 263.075 35.6478 264.127C35.4435 264.594 34.9767 264.974 34.6266 265.383C34.2764 264.974 33.7513 264.623 33.5762 264.156C32.7009 261.148 30.8627 258.519 28.3535 256.621C23.5393 253.029 18.0541 253.555 14.0568 258.052C13.1523 259.045 12.4813 260.243 11.606 261.265C11.285 261.644 10.7307 261.82 10.293 262.082C10.0888 261.586 9.68029 261.06 9.76782 260.593C10.2055 257.848 9.56358 255.015 8.0172 252.708C4.31173 247.071 -2.63239 246.049 -8.64285 250.167C-9.51815 250.78 -10.5977 251.131 -11.5897 251.627C-11.473 250.576 -11.4146 249.524 -11.2396 248.473C-10.5102 244.092 -10.9186 239.974 -14.5658 236.908C-18.4171 233.666 -22.7937 233.695 -27.2869 235.389C-27.9288 235.623 -28.5415 236.061 -29.1834 236.265C-29.5919 236.382 -30.1171 236.178 -30.5839 236.148C-30.4672 235.681 -30.4964 235.097 -30.2046 234.805C-28.1039 232.702 -27.141 230.103 -26.9076 227.241C-26.3532 220.611 -30.1754 216.289 -36.9153 215.793C-37.7323 215.734 -38.5492 215.793 -39.3662 215.793L-39.2786 215.734ZM-9.16803 248.269C-4.58725 245.552 -0.298233 244.852 4.16584 246.925C8.54238 248.969 10.9057 252.649 11.8394 257.614C15.3698 253.876 19.1336 251.539 24.1812 252.649C28.9662 253.701 32.059 256.884 34.5974 261.148C36.7565 256.387 39.7617 253.029 44.926 252.562C49.9736 252.124 53.9125 254.431 57.4138 258.257C58.2891 253.087 60.098 248.707 64.8539 246.575C69.6097 244.443 74.1905 245.728 78.5962 248.736C78.1586 243.537 78.4503 238.806 82.3892 235.302C86.2989 231.826 90.9672 231.797 95.8106 233.053C92.7178 220.407 95.5188 215.851 107.948 213.369C104.972 209.484 103.338 205.308 104.972 200.46C106.548 195.729 110.049 192.954 114.776 191.231C110.778 188.165 108.065 184.631 107.831 179.783C107.569 174.672 110.632 171.343 114.717 168.422C109.64 166.991 106.343 164.1 105.001 159.281C103.659 154.462 105.089 150.199 108.298 146.402C95.9273 143.949 92.7178 138.984 95.5188 126.601C90.763 127.74 86.3865 127.127 82.6518 123.943C78.9172 120.76 77.6626 116.525 78.567 111.385C74.103 113.897 69.7556 115.27 65.1165 112.962C60.5357 110.684 58.6392 106.654 57.9389 101.572C54.3502 105.252 50.4988 107.705 45.3637 107.121C40.141 106.508 37.3108 102.887 34.9183 98.2723C32.8759 103.325 29.5206 106.362 24.4438 107.005C19.3087 107.676 15.3114 105.311 11.8977 101.222C10.9641 106.362 9.50522 110.83 4.6035 113.05C-0.181522 115.24 -4.58725 113.663 -9.05132 111.181C-8.40943 116.467 -9.05132 121.081 -13.1653 124.44C-17.1625 127.711 -21.86 127.477 -26.8784 126.309C-24.5151 131.186 -23.844 135.771 -26.6158 140.24C-29.3876 144.708 -33.8809 146.168 -39.2203 146.285C-35.7482 150.169 -33.9393 154.316 -35.4273 159.223C-36.8569 163.983 -40.2415 166.962 -45.0557 168.831C-40.9709 171.606 -38.1116 174.877 -38.3741 179.988C-38.6367 184.865 -41.321 188.34 -45.0557 191.494C-40.2123 193.13 -36.7111 195.875 -35.3981 200.665C-34.0851 205.454 -35.6023 209.747 -38.8993 213.602C-33.9392 214.07 -29.4168 214.975 -26.6742 219.385C-23.9899 223.736 -24.7485 228.292 -26.4699 233.024C-21.4807 231.622 -17.1042 232.177 -13.3112 235.389C-9.57651 238.631 -8.55531 242.982 -9.16803 248.269Z" fill="#6750A4"/>
<path d="M112.063 260.07C108.445 255.923 107.511 255.806 102.551 258.23C99.5459 259.69 96.3656 260.946 92.9519 259.719C88.4295 258.084 85.8327 254.696 85.0741 250.023C84.4614 246.197 86.4454 243.365 89.4215 241.233C91.7556 239.568 94.2065 239.714 96.1905 241.379C97.4451 242.342 97.9703 243.949 97.591 245.467C97.2409 247.044 96.1905 247.979 94.7025 248.475C94.3816 248.592 94.0023 248.621 93.6813 248.738C91.4055 249.527 90.6177 251.805 91.9015 253.82C93.9147 257.062 97.7953 258.201 101.997 256.74C103.31 256.273 104.564 255.66 105.877 255.134C108.445 254.141 111.158 255.309 112.034 257.85C112.238 258.522 112.063 259.31 112.063 260.07Z" fill="#6750A4"/>
<path d="M85.0453 278.757C84.8995 278.26 84.7536 277.764 84.6369 277.267C84.17 275.311 82.9446 274.201 80.9314 274.201C79.2391 274.201 77.5469 274.376 75.8838 274.668C67.7142 276.157 60.9452 269.09 62.7833 260.971C63.717 256.911 68.0352 253.728 72.1783 254.137C74.3666 254.341 75.6212 255.743 76.3506 257.671C77.0217 259.423 76.3798 261 74.9209 261.964C74.0165 262.548 72.7618 262.84 71.6531 262.898C68.5312 263.044 67.1307 265.089 68.3561 267.98C69.6691 270.988 71.9741 272.682 75.2419 272.799C76.9341 272.828 78.6264 272.711 80.2895 272.478C83.1488 272.127 85.5705 273.587 86.0957 276.274C86.2416 277.092 85.8915 277.997 85.7748 278.874L85.0453 278.757Z" fill="#6750A4"/>
<path d="M-16.9868 278.607C-18.2706 277.03 -18.1247 275.716 -17.3953 274.402C-16.4616 272.737 -15.0903 271.802 -13.1354 271.861C-10.8596 271.919 -8.58382 272.211 -6.3372 272.065C-3.09856 271.861 0.0525532 268.648 0.227615 265.757C0.344324 263.829 -0.735229 262.515 -2.63173 262.252C-3.04021 262.223 -3.44868 262.194 -3.85716 262.223C-6.36637 262.165 -8.37959 260.5 -8.4963 258.397C-8.61301 256.149 -6.42473 253.695 -4.09058 253.462C1.33633 252.878 6.09217 257.988 5.59616 263.771C4.95427 270.868 -0.472633 275.073 -7.53345 273.993C-9.02148 273.73 -10.5387 273.584 -12.0559 273.555C-14.7402 273.584 -15.8197 274.548 -16.4324 277.147C-16.5783 277.614 -16.7825 278.111 -16.9868 278.607Z" fill="#6750A4"/>
<path d="M76.3211 76.6035C76.1168 77.1292 75.8542 77.6257 75.5916 78.1222C74.2495 80.1081 74.2495 81.8896 75.8542 83.7003C76.8171 84.7809 78.0133 85.657 79.122 86.6208C85.8619 92.5202 84.8699 101.72 77.0213 105.75C73.6076 107.502 68.1223 106.042 66.0508 102.859C64.6503 100.698 65.1755 97.8063 67.247 96.2584C68.9685 94.9442 70.9817 95.353 72.7615 97.3682C75.2415 100.143 78.0133 99.6462 79.3555 96.2C80.756 92.6078 79.5305 88.9572 75.9126 85.7738C75.0956 85.1021 74.337 84.372 73.6368 83.6127C71.5652 81.2471 72.9365 76.8372 76.3211 76.6035Z" fill="#6750A4"/>
<path d="M140.073 143.54C139.373 143.774 139.023 143.949 138.673 143.978C135.521 144.299 134.296 145.584 134.208 148.826C134.15 150.87 134.267 152.944 134.004 154.959C132.954 163.049 124.376 165.531 118.657 163.312C115.01 161.91 112.355 156.711 113.434 153.09C114.106 150.87 116.411 149.206 118.599 149.381C120.174 149.498 121.896 151.133 122.1 152.798C122.188 153.47 122.042 154.2 121.983 154.872C121.721 158.055 123.53 159.574 126.652 158.843C130.24 157.967 132.633 154.609 132.75 150.228C132.779 149.118 132.691 148.008 132.779 146.899C133.041 143.569 136.426 141.35 139.139 142.752C139.373 142.839 139.548 143.073 140.073 143.54Z" fill="#6750A4"/>
<path d="M45.5099 69.0137C45.4516 69.4517 45.364 69.8606 45.2765 70.2695C44.2553 73.4528 45.0139 75.1759 48.0483 76.6361C49.6239 77.3955 51.287 78.038 52.775 78.9141C58.377 82.3019 59.7483 88.026 56.4513 94.1007C54.0588 98.569 48.5152 100.234 44.0511 97.8681C44.0219 97.8389 43.9636 97.8097 43.9344 97.8097C41.9504 96.7583 40.9292 94.5095 41.3668 92.3192C41.7461 90.158 43.8177 88.727 45.9768 89.1358C46.4144 89.2234 46.8229 89.3695 47.2022 89.5739C47.6107 89.8075 47.99 90.0704 48.3985 90.304C50.966 91.7643 53.3877 90.5377 53.767 87.588C54.263 83.5869 52.5708 80.5496 48.7486 78.5929C47.494 77.9504 46.2102 77.3955 45.0139 76.6946C43.4092 75.7308 42.7381 74.1537 42.884 72.3722C43.0007 70.912 43.5843 69.6562 45.5099 69.0137Z" fill="#6750A4"/>
<path d="M142.961 205.978C142.436 205.832 142.144 205.803 141.94 205.686C139.081 203.788 136.747 205.044 135.113 207.526C134.354 208.694 133.595 209.892 132.808 211.031C128.023 218.04 120.67 216.813 115.943 212.783C111.713 209.162 112.559 203.759 114.572 200.692C115.856 198.794 118.219 197.947 120.407 198.619C122.216 199.144 123.413 200.897 123.208 202.766C123.063 203.73 122.625 204.635 121.983 205.365C120.874 206.621 120.378 208.023 120.874 209.571C121.37 211.118 122.917 211.615 124.376 211.849C127.556 212.345 130.298 211.44 132.312 208.84C133.42 207.409 134.412 205.891 135.55 204.489C136.63 203.175 138.089 202.532 139.752 202.941C141.211 203.233 142.669 203.817 142.961 205.978Z" fill="#6750A4"/>
<path d="M131.524 235.24C131.086 234.948 130.648 234.656 130.24 234.335C128.081 232.349 126.009 232.378 123.675 234.218C121.487 235.941 119.328 237.781 116.906 239.125C113.376 241.052 109.933 239.942 106.928 237.723C103.776 235.386 101.617 232.378 102.23 228.173C102.551 225.778 103.806 223.588 105.731 222.098C107.511 220.667 109.495 220.579 111.479 221.631C114.28 223.12 114.368 226.946 111.683 228.698C108.241 230.947 108.386 233.78 112.034 235.678C115.126 237.285 118.861 236.584 122.07 233.78C122.858 233.079 123.617 232.349 124.463 231.736C126.038 230.567 127.789 230.626 129.423 231.473C130.678 232.115 131.611 233.138 131.524 235.24Z" fill="#6750A4"/>
<path d="M11.8389 288.686C9.44639 287.284 9.76734 283.429 12.4224 282.085C13.7354 281.414 15.311 281.209 16.7698 280.917C20.3294 280.216 23.4513 278.931 24.56 275.076C24.8518 274.025 24.9685 272.915 24.8518 271.805C24.6476 269.644 22.6344 268.797 19.9209 269.615C16.9157 270.491 14.0855 268.417 14.3481 265.497C14.6107 263.015 16.5947 261.058 19.0748 260.824C28.5865 260.036 31.2707 268.972 29.0825 275.047C27.5069 279.457 23.9473 281.18 19.7167 281.969C18.3454 282.231 16.9157 282.319 15.5735 282.669C12.685 283.4 11.7805 284.743 11.9848 287.751C11.9848 288.043 11.9264 288.364 11.8389 288.686Z" fill="#6750A4"/>
<path d="M55.8374 289.619C55.604 288.714 55.4873 288.422 55.4581 288.101C55.3414 284.363 54.116 283.078 50.3522 282.669C48.514 282.464 46.6759 282.114 44.8669 281.588C36.9891 279.252 35.7053 269.205 40.2861 263.89C42.3868 261.466 46.8801 260.473 49.827 261.554C51.7818 262.342 53.0364 264.24 53.0072 266.343C52.9781 268.271 51.9861 269.614 49.9437 270.081C49.0975 270.286 48.1055 270.111 47.2302 269.877C44.0208 269.001 41.8617 270.928 42.4744 274.199C43.2038 278.054 46.0048 280.537 50.3813 281.238C51.6068 281.384 52.803 281.617 53.9993 281.909C56.3626 282.61 57.7339 285.064 57.092 287.458C56.9753 288.072 56.4501 288.627 55.8374 289.619Z" fill="#6750A4"/>
<path d="M124.989 114.685C124.435 115.036 124.231 115.24 123.997 115.328C120.963 116.262 120.263 117.752 121.08 121.724C121.517 123.827 122.334 125.9 122.509 128.003C123.005 133.727 119.358 138.312 113.698 139.48C108.184 140.59 103.982 138.049 102.436 132.646C101.706 130.164 103.486 127.068 105.937 126.513C108.446 125.929 110.489 127.594 110.926 130.573C111.364 133.639 113.756 134.808 116.411 133.23C119.738 131.274 121.021 127.682 119.942 123.272C119.65 122.016 119.212 120.789 118.95 119.533C118.337 116.584 120.905 113.692 123.735 114.101C124.085 114.16 124.377 114.364 124.989 114.685Z" fill="#6750A4"/>
<path d="M-4.81978 75.874C-3.06916 75.5819 -2.28138 76.5749 -1.69784 77.6555C-0.793356 79.2617 -0.735003 80.9556 -1.8729 82.4451C-2.80657 83.6425 -4.00282 84.6062 -5.08237 85.6576C-8.17512 88.6073 -9.10879 92.1119 -7.70829 95.4996C-6.36615 98.7414 -3.44846 99.2087 -1.17266 96.5218C0.461248 94.5943 2.50363 94.1854 4.37096 95.412C6.17993 96.6386 6.88017 99.5591 5.80063 101.516C3.14552 106.393 -4.46965 107.006 -8.52524 102.655C-13.3686 97.4856 -13.2811 91.4986 -8.23347 86.5045C-7.24146 85.5116 -6.13274 84.6646 -5.08237 83.7301C-2.66068 81.5689 -2.45644 79.5246 -4.29459 76.8377C-4.46965 76.5457 -4.64472 76.2244 -4.81978 75.874Z" fill="#6750A4"/>
<path d="M26.3717 68.748C28.239 69.5658 28.7934 70.7924 28.8518 72.3694C28.9101 74.3262 28.064 75.728 26.4009 76.6918C24.446 77.8308 22.3161 78.7653 20.5655 80.1672C18.0855 82.1239 17.4727 84.8983 18.2022 87.9064C18.8149 90.4765 20.974 91.3526 23.3373 90.0968C24.2126 89.6295 25.0588 89.0454 25.9924 88.841C27.8306 88.4905 29.6395 89.6879 30.2814 91.4402C30.9817 93.3678 30.2231 95.9086 28.56 97.106C23.7458 100.611 17.0934 98.3618 14.6426 92.404C12.2501 86.6506 14.1466 81.3354 19.7194 78.298C21.0032 77.5971 22.3745 77.0714 23.6874 76.4581C26.8385 74.9979 27.5971 73.304 26.5176 70.0039C26.4009 69.5658 26.3717 69.1569 26.3717 68.748Z" fill="#6750A4"/>
<path d="M146.172 174.559C145.267 174.471 144.888 174.442 144.508 174.383C141.649 173.887 140.074 174.763 139.082 177.508C138.44 179.261 138.031 181.101 137.36 182.853C134.413 190.212 125.514 192.286 119.591 187.029C116.907 184.634 115.944 179.932 117.491 176.691C118.483 174.705 120.642 173.566 122.859 173.828C124.668 174.062 126.069 175.552 126.156 177.391C126.156 178.268 125.981 179.115 125.602 179.903C124.201 183.057 125.602 185.043 129.016 185.248C132.546 185.452 135.58 182.97 136.747 179.757C137.273 178.268 137.71 176.749 138.294 175.289C139.403 172.514 142.962 171.463 145.15 173.215C145.413 173.449 145.588 173.799 146.172 174.559Z" fill="#6750A4"/>
<path d="M103.603 92.1097C103.369 92.4601 103.136 92.8106 102.844 93.1026C100.043 95.439 99.8389 96.8117 101.56 100.024C102.961 102.623 104.566 105.193 105.382 107.997C106.666 112.407 103.428 117.518 98.5259 119.708C94.4703 121.519 89.8895 120.205 87.2344 116.467C85.7172 114.364 85.6297 112.553 86.9427 110.45C87.818 109.048 89.0726 108.26 90.7648 108.464C92.3112 108.64 93.5075 109.37 94.1202 110.888C94.2952 111.326 94.4995 111.735 94.7621 112.144C95.9292 114.101 98.2925 114.451 99.9847 112.962C102.727 110.538 103.398 106.566 101.589 103.003C100.86 101.543 99.8972 100.199 99.1678 98.7392C97.7965 96.1107 99.2553 92.7522 101.969 92.1389C102.29 92.0221 102.727 92.1097 103.603 92.1097Z" fill="#6750A4"/>
<path d="M-34.5809 180.133C-34.8727 142.546 -3.82841 110.508 35.0061 110.566C72.7319 110.596 104.126 140.852 104.564 179.315C105.031 219.325 72.6444 250.02 34.656 249.874C-4.41195 249.699 -34.9894 217.427 -34.5809 180.133ZM102.667 180.133C102.813 143.539 73.3154 113.166 36.4358 112.406C-2.42793 111.618 -32.8303 143.072 -32.8303 180.191C-32.8011 216.872 -3.41993 248.034 35.0061 248.005C73.7239 248.005 102.93 216.347 102.667 180.133Z" fill="#6750A4"/>
<path d="M34.5692 228.438C8.01822 228.38 -14.2438 206.622 -13.777 179.082C-13.3685 152.331 8.63092 131.011 35.357 131.42C35.4737 131.42 35.5904 131.42 35.7363 131.42C62.4916 131.946 83.7324 154.054 83.2364 180.834C83.2364 181.156 83.2072 181.506 83.2072 181.827C82.186 207.586 60.9452 228.468 34.5692 228.438ZM82.5945 179.958C82.5945 153.82 61.2661 132.325 35.6196 132.004C8.71846 131.653 -13.2226 153.499 -13.1643 179.929C-13.1059 206.301 8.1641 227.679 34.5109 227.854C60.4784 228.03 82.6528 206.768 82.5945 179.958Z" fill="#6750A4"/>
<path d="M31.8252 118.658C32.117 117.928 32.4379 117.402 32.5254 116.847C32.7005 115.621 33.3132 114.949 34.5386 114.803C37.0479 114.452 38.6818 115.971 40.374 117.49C40.7825 117.84 41.2202 118.278 41.7162 118.366C45.9177 119.242 50.1483 120.031 54.4373 120.878C56.0712 118.161 58.1428 118.045 60.3602 120.819C60.7395 121.257 61.0021 121.783 61.3231 122.279C62.1984 123.535 63.0737 124.791 63.8907 125.93C62.2859 125.579 62.1692 127.332 61.4982 128.471C61.0313 129.289 60.6228 130.135 60.2727 130.982C59.8059 132.005 59.2515 131.917 58.5221 131.128L59.5141 128.938C56.5964 127.332 56.5964 127.332 57.6176 123.623C56.0712 122.455 55.8086 122.513 55.2251 124.178C54.7583 125.492 54.3498 126.835 53.7954 128.12C53.6495 128.471 53.066 128.646 52.6867 128.909C52.5992 128.471 52.3074 128.003 52.4241 127.624C52.9493 125.842 53.5912 124.09 54.2331 122.163L52.4241 121.403C51.6363 123.681 50.9069 125.842 50.1191 127.974C49.7982 127.916 49.4481 127.857 49.1271 127.741L49.9733 123.71L47.0847 124.733C45.6842 124.061 45.5967 123.74 46.8222 122.279C46.9097 122.133 46.9972 121.958 47.0264 121.783C47.1431 121.345 47.2306 120.878 47.3181 120.439C44.9548 119.038 41.6287 119.008 41.5119 119.797C42.6498 120.731 43.9628 121.345 44.3129 122.279C44.5463 122.951 43.5251 124.148 42.9416 125.025C42.7957 125.229 42.1538 125.112 41.687 125.112L42.9708 121.754L42.1538 121.316C41.7454 121.841 41.3952 122.367 41.0743 122.951C40.8992 123.36 41.0743 123.915 40.8992 124.324C40.6366 124.937 40.3157 125.521 39.9364 126.076L38.9152 124.557L38.7401 124.791C37.8648 124.002 36.406 123.272 36.2601 122.367C35.9391 119.885 38.1858 120.06 39.9072 119.709C38.1566 118.57 36.3476 118.629 34.2761 118.746C34.2761 120.702 34.3344 122.601 34.2469 124.499C34.2177 124.966 33.7217 125.404 33.2549 126.164C32.1753 123.331 34.1302 120.469 31.8252 118.658ZM38.6526 117.928L38.8277 117.607C38.0399 117.081 37.2813 116.438 36.406 116.029C35.8808 115.767 35.0055 115.562 34.6554 115.825C34.1885 116.205 34.0718 117.022 33.7217 117.928H38.6526ZM60.0393 123.389L60.477 122.893C59.66 121.958 58.9597 120.907 58.0261 120.118C57.7635 119.885 56.8298 120.469 56.2171 120.673C56.4505 121.14 56.5672 121.841 56.9465 122.075C57.8802 122.63 58.9889 122.98 60.0393 123.389ZM61.4106 124.908L58.7555 123.798C58.7555 125.287 58.5805 127.244 58.7847 127.303C60.2727 127.565 61.0021 126.514 61.4106 124.908ZM50.2358 123.302L50.6735 120.907L48.9521 120.673L48.3977 122.805L50.2358 123.302ZM40.0823 121.958L38.7693 120.936C38.4484 121.374 37.9815 121.754 37.894 122.221C37.8356 122.542 38.3317 122.951 38.5943 123.331L40.0823 121.958Z" fill="#6750A4"/>
<path d="M78.8012 137.61C77.4007 139.187 76.2044 140.618 74.8915 141.962C74.5705 142.283 73.8411 142.195 73.2867 142.312L73.0241 141.641L78.0134 136.88L76.3211 135.274C75.0082 136.734 73.7536 138.078 72.5573 139.45C71.8571 140.239 71.2735 140.443 70.69 139.275L73.17 136.355L69.9606 134.252L69.7855 137.873C68.2099 137.64 67.9182 134.953 69.202 131.01L70.6316 133.726C70.9526 132.733 71.5945 131.799 71.3611 131.185C71.0693 130.455 70.0773 130.017 69.1436 129.229C74.2204 129.55 89.2757 147.657 91.5515 155.747C88.7213 155.075 86.9415 157.586 84.4615 158.054C83.6446 157.353 83.7904 156.798 84.7533 156.389C85.3076 156.185 85.8036 155.893 86.2997 155.571C86.5331 155.367 86.6789 155.075 86.6789 154.754C86.5914 154.374 86.3288 154.053 86.0079 153.848C84.1697 153.206 84.1114 152.914 85.5702 151.57C86.3872 151.337 87.7877 151.249 87.8752 150.869C88.0503 150.081 87.5251 149.117 87.2333 147.92L81.3687 151.833L80.8436 151.716L81.1937 149.234C80.9019 148.416 80.5518 147.628 80.1725 146.868C79.9391 146.43 79.4431 146.109 79.0638 145.729C78.3635 145.058 77.459 144.473 77.0506 143.656C76.8171 143.159 77.3423 142.225 77.6925 141.611C78.276 140.589 79.0346 139.655 79.6765 138.662C79.6765 138.603 79.3555 138.311 78.8012 137.61ZM80.7268 143.919C80.4934 143.714 80.26 143.51 79.9974 143.334C79.5014 143.13 79.0054 143.013 78.4802 142.926C78.3635 142.926 78.0134 143.656 78.0717 143.714C78.5094 144.152 79.0054 144.503 79.5598 144.736C80.4643 145.058 81.4563 145.437 82.3899 145.408C82.9443 145.379 83.9947 144.327 83.9071 144.123C83.4987 143.247 82.9443 142.458 82.244 141.787C81.7772 141.319 81.1061 141.056 80.2892 140.531C78.5677 141.465 81.0186 142.546 80.7268 143.919ZM81.3979 147.102C81.4563 147.306 81.3979 148.182 81.748 148.358C82.244 148.65 83.061 148.591 83.6737 148.445C84.1989 148.299 84.6366 147.803 85.1326 147.511C86.2705 146.868 85.9787 146.343 85.1034 146.255L81.3979 147.102ZM73.2284 132.47C72.8783 132.908 72.6448 133.171 72.4406 133.434C72.2364 133.697 72.0905 133.989 71.9154 134.252C73.6952 136.092 73.8994 136.062 75.0082 133.989L73.2284 132.47ZM87.8169 154.9L89.9468 153.79L88.9547 152.242L86.9707 153.293L87.8169 154.9Z" fill="#6750A4"/>
<path d="M10.7879 122.891C10.8754 123.884 10.7879 124.731 11.0505 125.461C11.5173 126.775 12.2467 128.001 12.7135 129.316C12.8303 129.637 12.4801 130.133 12.3343 130.572C11.9841 130.338 11.4881 130.221 11.3422 129.9C10.4961 128.177 9.7375 126.395 8.89137 124.526L6.73227 125.49L10.0293 131.389C9.00807 132.674 8.57043 131.857 8.10359 131.01C7.66594 130.25 7.1991 129.52 6.76144 128.79C5.3026 129.257 5.3026 129.257 5.44848 131.506L2.6475 130.747L2.55997 130.163L6.11957 127.826C5.85697 126.57 5.3026 126.162 4.19388 126.892C2.7642 127.797 1.33454 128.673 -0.211835 129.637L3.72705 135.244C2.73504 136.734 2.18067 135.536 1.53878 134.923C0.313349 135.741 -0.79538 137.493 -2.48764 136.062C-3.042 135.595 -3.33377 134.31 -3.12953 133.58C-2.95447 132.908 -1.93328 132.47 -1.26221 131.915L-0.882911 132.382C-1.26221 132.879 -1.87493 133.375 -1.93328 133.901C-1.99164 134.281 -1.37891 134.835 -0.941258 135.186C-0.766197 135.332 -0.065958 135.157 -0.0367813 135.011C0.138281 134.31 0.400878 133.492 0.19664 132.879C-0.0659533 132.09 -0.766199 131.448 -1.40809 130.542C-2.86694 131.71 -4.29661 132.791 -5.60957 133.988C-5.87216 134.222 -5.78463 135.186 -5.49286 135.536C-4.53003 136.705 -3.47965 137.844 -2.40011 138.895C-1.64151 139.654 -1.72904 140.18 -2.66271 140.53C-4.99686 139.537 -5.46369 136.091 -8.38138 136.091C-8.6148 135.478 -8.76068 134.777 -9.1108 134.193C-9.72352 133.171 -9.57763 132.324 -8.81903 131.477C-7.15595 129.549 -4.90932 129.637 -2.69188 129.579C-1.93328 129.549 -1.17467 129.345 -0.503605 128.965C2.88092 127.125 6.20709 125.198 9.59161 123.329C9.94173 123.095 10.3502 122.978 10.7879 122.891ZM-3.59636 131.185L-3.8006 130.718C-4.76344 130.864 -5.75546 130.893 -6.65994 131.185C-7.24348 131.36 -8.06044 131.886 -8.11879 132.353C-8.20632 132.908 -7.5936 133.55 -7.2143 134.281L-3.59636 131.185Z" fill="#6750A4"/>
<path d="M92.9812 188.459C92.9812 187.729 93.0979 186.94 92.9228 186.239C92.8353 185.86 92.2809 185.568 91.9308 185.217C91.6099 185.568 91.0847 185.889 90.9972 186.298C90.8513 187.028 90.9388 187.787 90.9388 188.634C89.4508 187.612 89.2174 186.269 89.976 184.838C90.4136 184.049 90.6762 183.202 90.7637 182.297C90.8804 180.486 90.8804 178.675 90.7637 176.865C90.647 175.813 90.3553 174.762 89.8884 173.798C89.2465 172.396 89.48 171.257 90.9096 170.206C90.9096 170.907 90.7929 171.637 90.9388 172.309C91.0555 172.747 91.5515 173.097 91.8725 173.506C92.2226 173.097 92.7186 172.747 92.8353 172.309C93.0104 171.666 92.8937 170.965 92.8937 169.885C94.3233 171.257 94.6151 172.367 93.8565 173.857C93.4188 174.704 93.1563 175.638 93.0687 176.573C92.9228 178.325 92.9228 180.077 93.0687 181.83C93.1854 182.939 93.5064 184.02 93.9732 185.042C94.6443 186.444 94.3817 187.525 92.9812 188.459Z" fill="#6750A4"/>
<path d="M47.9907 239.975L46.2109 233.695C47.4364 232.615 47.9616 233.228 48.4576 234.309C48.866 235.185 49.4496 235.973 50.2082 236.587C50.2082 235.652 50.2374 234.688 50.2082 233.754C50.1498 232.673 50.2957 231.856 51.8713 232.148L53.476 238.485L52.7757 238.69L51.4628 234.747H51.1127V239.274L50.5583 239.42L48.3408 235.915L48.0199 236.003L48.7493 239.77L47.9907 239.975Z" fill="#6750A4"/>
<path d="M0.957052 228.44C2.97026 228.353 3.37873 225.169 6.09219 226.454L2.06577 232.149L1.45305 231.77L3.43709 228.382L3.17449 228.119L-0.0933199 230.777L-0.560153 230.397L0.898695 226.133L0.606925 225.987L-2.019 229.287L-2.60254 228.849C-1.40628 227.126 -0.23921 225.374 0.986222 223.68C1.10293 223.534 1.74482 223.534 1.89071 223.68C2.12412 223.972 2.35755 224.498 2.27001 224.848C1.94907 226.016 1.45306 227.155 0.957052 228.44Z" fill="#6750A4"/>
<path d="M92.1919 201.513L88.3989 200.257L88.1946 200.578L91.55 203.207L91.3749 203.762L86.5899 203.236L86.4732 203.47L90.558 205.339L90.4704 205.806C90.0328 205.777 89.5951 205.864 89.2158 205.718C87.8445 205.193 86.5024 204.667 85.1894 204.025C84.7809 203.82 84.5475 203.294 84.2266 202.915C84.7809 202.681 85.3353 202.214 85.8605 202.214C86.94 202.243 87.9904 202.535 89.245 202.389L85.5979 199.615L86.2689 198.184L92.4253 200.841L92.1919 201.513Z" fill="#6750A4"/>
<path d="M22.6643 120.06L17.3833 121.053L17.2666 120.411L24.6484 118.717C24.59 119.797 24.3858 120.703 24.5025 121.579C24.7359 123.127 25.1736 124.645 25.5237 126.193C24.6192 126.894 24.0065 126.865 23.8022 125.638C23.7147 125.113 23.5396 124.616 23.5105 124.09C23.3646 122.835 22.7519 122.455 21.4973 123.01V124.266C20.7387 125.171 19.4549 124.412 18.9005 123.01C19.7175 121.608 22.8686 123.244 22.6643 120.06Z" fill="#6750A4"/>
<path d="M16.6543 238.925C14.4077 237.552 16.0708 235.362 14.9329 233.756L13.299 237.611L12.6279 237.377L14.6703 231.04C16.2751 231.01 16.0125 232.12 16.0416 232.967C16.0708 233.814 16.0416 234.661 16.0416 235.508L16.596 235.654L18.084 232.033L18.7551 232.266L16.6543 238.925Z" fill="#6750A4"/>
<path d="M27.5668 236.409L26.9541 240.906H26.3414C26.283 240.235 26.2247 239.563 26.2539 238.891C26.3414 237.606 26.4581 236.321 26.6623 235.065C26.7207 234.715 27.1292 234.423 27.3918 234.102C27.7127 234.394 28.1795 234.627 28.2962 234.978C28.6755 236.117 28.9381 237.314 29.58 238.482L30.3678 234.423L30.8055 234.364C30.9222 234.51 30.9805 234.656 31.0389 234.802C30.8638 236.905 30.6887 238.979 30.4553 241.403C28.0045 240.468 28.909 237.986 27.5668 236.409Z" fill="#6750A4"/>
<path d="M22.2862 240.529C21.4109 237.609 20.0688 237.083 18.0264 239.653L17.793 238.982C18.8725 237.054 19.8354 235.039 21.1191 233.257C21.6443 232.527 22.578 233.024 22.6072 234.046C22.6655 236.032 22.6363 237.989 22.6363 239.975L22.2862 240.529Z" fill="#6750A4"/>
<path d="M71.1288 220.701L76.935 224.731C75.447 225.082 73.7255 226.601 73.2587 227.71C71.333 225.724 70.0493 221.694 71.1288 220.701Z" fill="#6750A4"/>
<path d="M54.7305 238.283C54.4679 235.888 54.2054 233.873 54.0595 231.858C54.0303 231.507 54.3512 230.923 54.643 230.835C54.9348 230.748 55.5183 231.011 55.7517 231.303C56.948 232.851 58.0859 234.486 59.5739 236.53C58.2318 236.122 57.2106 235.45 56.5395 235.713C55.8684 235.976 55.4891 237.115 54.7305 238.283Z" fill="#6750A4"/>
<path d="M78.012 224.09L72.3809 218.804C73.8397 218.103 75.3277 216.789 76.203 217.11C77.6035 217.636 78.9457 219.125 79.5584 220.527C79.8793 221.257 78.6539 222.718 78.012 224.09ZM74.0439 218.95C74.9484 219.826 75.8529 220.79 76.8741 221.608C77.2534 221.929 77.9245 221.9 78.4497 222.017C78.4788 221.403 78.7123 220.644 78.4497 220.177C78.0995 219.505 77.4285 218.921 76.7866 218.424C75.8237 217.665 74.8609 217.578 74.0439 218.95Z" fill="#6750A4"/>
<path d="M81.4562 219.534L76.2627 215.299L76.7003 214.715L79.0637 216.175L80.2599 214.627L78.1884 212.787C79.2971 212.378 81.9814 214.16 83.9654 216.438L83.7612 216.905L81.1352 215.416C79.5597 216.584 79.5597 216.701 80.9894 217.898C81.3687 218.249 81.7188 218.657 82.0689 219.066L81.4562 219.534Z" fill="#6750A4"/>
<path d="M40.0533 234.134L40.666 236.791L42.8251 233.783L43.5253 233.9C41.0453 236.587 42.7959 238.514 44.5174 240.471L43.8755 240.88L41.2204 237.96L40.6368 241.172L40.17 241.026C39.3822 237.609 39.2363 235.097 40.0533 234.134Z" fill="#6750A4"/>
<path d="M31.4766 241.665C32.206 239.153 32.7604 237.109 33.4022 235.094C33.6065 234.773 33.9274 234.568 34.3067 234.539C34.5693 234.568 34.9486 234.977 35.0361 235.269C35.6197 237.284 36.0573 239.358 36.2908 241.461C35.6489 240.877 35.0653 240.117 34.3067 239.738C32.7895 239.007 32.9938 241.139 31.4766 241.665ZM35.0361 238.92L34.1608 235.532L33.2272 238.745L35.0361 238.92Z" fill="#6750A4"/>
<path d="M89.8602 207.298C88.6056 207.969 87.4385 208.203 87.0301 208.904C86.7091 209.459 87.351 210.569 87.5553 211.415L86.9717 211.795C85.5712 210.276 84.1416 208.758 82.7994 207.181C82.5952 206.86 82.5368 206.48 82.6243 206.129C82.7994 205.837 83.0912 205.662 83.4413 205.662C85.4837 206.129 87.5261 206.684 89.8602 207.298ZM84.0249 206.743L83.8498 207.093L85.9214 208.962L86.7383 207.444L84.0249 206.743Z" fill="#6750A4"/>
<path d="M68.0628 228.993C68.3838 229.139 68.7339 229.226 69.1132 229.285C69.58 229.285 70.1636 229.256 70.4553 228.993C70.6887 228.788 70.7471 228.029 70.572 227.795C70.2219 227.445 69.7551 227.24 69.2591 227.24C68.7631 227.24 68.1504 227.737 67.7711 227.591C67.0124 227.27 65.8162 226.656 65.787 226.131C65.7578 225.371 66.4581 224.378 67.1292 223.823C67.4793 223.531 68.4129 223.911 69.084 223.999L68.9673 224.729C68.588 224.7 68.1504 224.524 67.8294 224.641C67.3626 224.816 67.0124 225.196 66.5748 225.459C66.9541 225.839 67.2459 226.423 67.6835 226.54C68.2087 226.686 68.8214 226.394 69.3758 226.277C70.572 226.043 71.5057 226.598 71.5349 227.708C71.4765 228.642 71.0097 229.489 70.2803 230.073C69.5508 230.599 68.4713 230.511 68.0628 228.993Z" fill="#6750A4"/>
<path d="M8.7769 227.973C9.44797 229.725 7.93076 231.273 8.07664 233.142C9.73973 232.324 10.0607 230.046 11.8405 229.55L12.2781 229.988C10.9068 231.594 9.56468 233.229 8.10583 234.777C7.87242 235.011 7.14299 234.806 6.53027 234.806L8.135 227.943L8.7769 227.973Z" fill="#6750A4"/>
<path d="M57.4434 229.813C59.6024 228.178 60.7112 228.032 61.6157 229.229C62.5785 230.514 62.2576 231.361 60.2444 232.851L61.1488 235.479L60.4778 235.742L57.4434 229.813ZM59.7192 232.062C60.9446 231.537 61.4698 230.836 60.7695 229.959C60.4486 229.551 59.5441 229.609 58.9314 229.463L58.698 230.018L59.7192 232.062Z" fill="#6750A4"/>
<path d="M86.2103 213.573L79.4121 211.47V211.119H82.534L81.1627 208.316L81.5712 208.111L86.2103 213.573Z" fill="#6750A4"/>
<path d="M45.2189 233.551L46.4152 240.268C44.7813 239.158 44.081 234.31 45.2189 233.551Z" fill="#6750A4"/>
<path d="M62.0244 227.271C64.2127 229.374 65.6423 232.412 64.9713 233.492C63.9793 231.302 62.287 229.637 62.0244 227.271Z" fill="#6750A4"/>
<path d="M10.2637 236.352L13.0355 229.693C13.7065 231.475 11.9268 235.768 10.2637 236.352Z" fill="#6750A4"/>
<path d="M69.2016 206.474C71.2731 208.372 69.9602 209.452 68.8223 210.591C67.6844 211.73 66.634 212.869 65.4669 213.95C64.5916 214.768 63.833 216.17 62.3158 214.826C61.9949 215.235 61.3238 215.79 61.4113 216.024C61.9074 217.163 61.2363 217.659 60.4485 218.126C59.0188 219.032 57.5892 219.937 56.1011 220.784C55.0216 221.397 54.0588 222.215 52.7458 220.842C52.0747 220.141 50.9368 220.755 50.9952 221.923C51.0535 223.12 50.4116 223.442 49.5071 223.675C47.9899 224.084 46.4727 224.522 44.9555 224.96C43.7009 225.311 42.5922 225.749 41.7169 224.084C41.1625 223.004 40.2289 223.617 39.9663 224.551C39.6453 225.778 38.9159 226.041 37.778 226.012C36.0274 225.982 34.2768 226.128 32.5262 226.128C31.4466 226.128 30.3963 226.07 30.3379 224.522C30.3087 224.084 29.6376 223.383 29.2584 223.383C28.6748 223.471 28.1788 223.85 27.887 224.376C27.4786 225.544 26.7491 225.544 25.8155 225.282C23.6856 224.697 21.5265 224.143 19.4257 223.442C18.9881 223.296 18.7255 222.565 18.4629 222.069C18.2003 221.572 18.2003 220.813 17.821 220.609C17.4709 220.434 16.6539 220.667 16.333 220.988C15.5452 221.835 14.8449 221.631 14.028 221.134C12.8609 220.434 11.6938 219.82 10.5267 219.119C9.41803 218.448 8.36765 217.863 8.65942 216.17C8.89283 214.855 7.63823 214.855 6.82127 215.147C5.71255 215.585 5.04148 215.177 4.34123 214.476C3.05745 213.191 1.80284 211.876 0.489881 210.621C-0.181189 209.978 -0.414608 209.365 0.139754 208.46C0.402347 208.051 0.460704 207.174 0.198112 206.912C-0.152012 206.561 -0.910616 206.62 -1.46498 206.444C-2.10687 206.24 -2.953 206.123 -3.27394 205.656C-4.26596 204.283 -4.99538 202.735 -5.89987 201.304C-6.54176 200.253 -6.95024 199.348 -5.84152 198.209C-5.02457 197.391 -5.63728 196.223 -6.92106 196.164C-8.11732 196.077 -8.5258 195.463 -8.78839 194.47C-9.19687 192.952 -9.63452 191.433 -10.043 189.885C-10.3639 188.629 -10.7724 187.49 -9.05098 186.702C-8.17568 186.293 -8.37991 185.125 -9.45946 184.92C-10.9183 184.599 -11.1517 183.752 -11.0934 182.496C-11.035 181.211 -11.0934 179.926 -11.0934 178.612C-11.0934 177.181 -11.4143 175.75 -9.34275 175.166C-8.35074 174.903 -8.46744 173.618 -9.31357 173.034C-10.3931 172.275 -10.4515 171.457 -10.1014 170.318C-9.57617 168.595 -9.10933 166.813 -8.70086 165.061C-8.46744 164.01 -7.94226 163.601 -6.86271 163.688C-6.45424 163.718 -5.72481 163.396 -5.63728 163.104C-5.52057 162.637 -5.66646 161.849 -5.9874 161.586C-7.0086 160.797 -6.71682 160.009 -6.22082 159.162C-5.28715 157.555 -4.41185 155.891 -3.3323 154.343C-3.04053 153.905 -2.22358 153.759 -1.64004 153.584C-0.968972 153.438 -0.268725 153.35 0.402345 153.291C0.227283 152.591 0.0522232 151.89 -0.152016 151.218C-0.210369 151.014 -0.414608 150.838 -0.735555 150.313C1.24848 148.414 3.23252 146.458 5.33326 144.588C5.62502 144.326 6.44198 144.618 6.99635 144.705C7.434 144.764 7.98836 145.085 8.25095 144.939C8.51354 144.793 8.6886 144.063 8.57189 143.741C7.98835 142.398 8.74695 141.814 9.73897 141.259C11.3145 140.354 12.8609 139.419 14.4365 138.514C15.341 137.988 16.1287 137.813 16.8582 138.893C17.0624 139.215 17.7626 139.565 17.996 139.419C18.3753 139.215 18.7838 138.631 18.7547 138.251C18.6671 136.703 19.5716 136.207 20.8262 135.915C22.2851 135.564 23.7439 135.126 25.2319 134.746C26.3698 134.454 27.3619 134.279 27.9454 135.739C28.0913 136.09 28.9082 136.294 29.4334 136.294C29.6668 136.294 30.1045 135.652 30.1045 135.272C30.1628 134.104 30.8047 133.812 31.8259 133.841C33.81 133.87 35.8232 133.753 37.778 133.899C38.4199 133.958 39.1785 134.513 39.5578 135.068C40.3164 136.207 41.075 136.294 42.0378 135.36C42.4463 134.951 43.2341 134.6 43.7301 134.717C45.8308 135.184 47.9316 135.769 49.974 136.469C50.4992 136.732 50.8785 137.2 51.0535 137.755C51.3745 139.098 51.9288 139.39 53.271 138.952C54.0296 138.689 54.8757 138.718 55.6343 138.981C57.064 139.624 58.3769 140.529 59.7191 141.347C60.7111 141.96 61.6739 142.515 61.353 144.063C61.1488 145.056 61.9365 145.173 62.8702 145.056C63.5996 144.968 64.5916 145.143 65.146 145.611C66.6924 146.954 68.0637 148.473 69.4642 149.962C70.0769 150.634 70.8355 151.276 70.2811 152.415C70.1936 152.591 70.748 153.145 71.0981 153.438C71.6816 153.905 72.5278 154.138 72.9071 154.723C73.9866 156.329 74.8911 158.023 75.8247 159.717C76.2332 160.476 76.7876 161.264 75.7664 162.024C75.708 162.082 76.1457 162.929 76.4666 163.338C76.9043 163.864 77.6921 164.156 77.8963 164.74C78.5674 166.726 79.1217 168.77 79.5886 170.814C79.7928 171.72 80.4639 172.917 78.8883 173.501C78.8591 173.501 79.0926 174.932 79.2968 174.962C80.5222 175.137 80.3764 175.984 80.4055 176.801C80.4347 178.203 80.4639 179.605 80.4639 181.036C80.4639 182.292 80.7557 183.665 79.0342 184.219C78.8591 184.278 78.83 185.621 79.005 185.709C80.4055 186.322 80.0846 187.344 79.822 188.367C79.326 190.352 78.8592 192.338 78.2756 194.295C78.013 195.23 77.838 196.281 76.4375 196.339C76.2916 196.339 76.1457 197.332 76.0873 197.887C76.029 198.442 76.2916 199.172 76.0582 199.64C75.1245 201.538 74.045 203.349 73.0529 205.218C72.5569 206.152 72.0026 206.707 70.8355 206.357C70.4854 206.152 70.0769 206.357 69.2016 206.474ZM-7.82555 164.389C-8.35073 166.258 -8.87592 168.215 -9.43028 170.172C-9.69287 171.106 -9.75123 171.866 -8.78839 172.625C-7.70885 173.472 -7.85473 175.312 -9.0218 175.692C-10.3639 176.159 -10.4515 177.064 -10.4515 178.116C-10.4515 179.576 -10.4223 181.036 -10.3931 182.496C-10.3639 183.343 -10.2181 183.957 -9.19687 184.307C-7.82555 184.745 -7.35872 186.322 -8.35074 186.877C-10.3056 187.958 -9.51781 189.36 -9.19687 190.761C-8.96345 191.842 -8.55497 192.893 -8.29238 193.974C-8.08814 194.85 -7.7672 195.347 -6.74601 195.493C-5.17045 195.726 -4.29514 197.274 -5.19962 198.296C-6.33752 199.61 -5.66646 200.487 -5.08292 201.538C-4.44102 202.648 -3.74077 203.728 -3.12806 204.867C-2.6904 205.685 -2.25276 206.036 -1.20239 205.773C0.285637 205.422 1.51107 206.736 0.898356 208.021C0.19811 209.482 0.840001 210.299 1.74449 211.205C2.64897 212.11 3.49511 213.132 4.5163 213.892C5.18737 214.33 5.97515 214.534 6.7921 214.476C8.28013 214.33 9.4472 214.855 9.30131 216.14C9.12625 217.63 9.88486 218.243 10.9644 218.827C11.9564 219.353 12.8901 219.908 13.8529 220.492C14.7282 221.018 15.4577 221.105 16.333 220.287C17.3833 219.324 19.0464 219.966 19.0172 221.339C18.9881 222.799 19.7758 223.12 20.8262 223.412C22.5185 223.85 24.2107 224.318 25.9322 224.668C26.3406 224.756 26.895 224.376 27.3035 224.113C27.9454 223.704 28.6748 222.711 29.0833 222.828C29.8127 223.062 30.2795 223.996 30.9214 224.581C31.3007 224.931 31.7384 225.486 32.1469 225.515C33.9558 225.603 35.7648 225.486 37.5738 225.486C38.5366 225.486 39.1493 225.194 39.5286 224.172C39.9663 223.004 41.4835 222.624 42.0378 223.558C42.9423 225.048 43.9635 224.697 45.1598 224.318C46.356 223.938 47.6398 223.617 48.8653 223.296C49.8281 223.033 50.47 222.711 50.47 221.456C50.47 220.258 52.1331 219.499 52.95 220.317C54.0004 221.31 54.7882 220.959 55.7218 220.404C57.1223 219.557 58.4937 218.681 59.8941 217.834C60.5944 217.425 61.032 217.046 60.6819 216.024C60.3026 214.885 61.1779 213.95 62.1991 214.388C63.7455 215.089 64.4749 214.213 65.321 213.366C66.8382 211.818 68.2971 210.241 69.7559 208.722C68.7056 206.707 68.939 205.364 70.1644 205.627C72.2068 206.094 72.5278 204.634 73.228 203.524C73.9283 202.414 74.3951 201.217 75.037 200.107C75.533 199.26 75.7664 198.501 75.2704 197.508C75.0662 197.099 75.5038 195.931 75.8539 195.843C77.2253 195.522 77.517 194.5 77.8088 193.419C78.2756 191.667 78.8008 189.914 79.1509 188.162C79.2676 187.578 79.1217 186.731 78.7424 186.293C77.517 184.95 77.4878 184.453 78.8883 183.431C79.9095 182.672 80.1429 176.422 79.1801 175.604C77.4295 174.144 77.4295 173.706 79.326 172.216C78.7133 169.938 78.1297 167.543 77.3711 165.236C77.1961 164.681 76.3499 164.389 75.9706 163.864C75.5622 163.28 74.8619 162.199 75.0662 161.995C75.9706 160.972 75.3871 160.155 74.9494 159.337C74.1325 157.847 73.3447 156.358 72.411 154.927C72.1193 154.489 71.3898 154.343 70.9522 153.963C70.427 153.554 69.9602 153.029 69.6101 152.445C69.2308 151.744 69.2891 150.751 68.8223 150.196C67.626 148.765 66.3131 147.392 64.9126 146.166C64.4166 145.727 63.5121 145.552 62.8118 145.64C61.4989 145.786 60.5652 145.377 60.7111 144.063C60.857 142.749 60.2151 142.252 59.3398 141.726C58.1435 140.996 56.9764 140.179 55.6927 139.653C54.9341 139.39 54.0879 139.361 53.3001 139.565C52.0455 139.916 50.7618 139.74 50.5867 138.514C50.3825 137.112 49.6239 136.878 48.6027 136.586C47.2022 136.207 45.8308 135.652 44.4012 135.418C43.6426 135.36 42.9132 135.593 42.3004 136.031C41.075 136.966 39.9663 136.791 39.091 135.447C38.7992 134.98 38.1865 134.484 37.6905 134.454C35.4439 134.338 33.1681 134.396 30.9214 134.396L31.1549 134.922C30.5713 135.623 29.9002 136.966 29.4042 136.908C28.3539 136.791 27.4202 135.915 26.0489 135.155C25.0569 135.389 23.5105 135.71 21.9933 136.119C20.5928 136.499 19.2506 136.791 19.1631 138.806C19.1048 140.12 17.6459 140.646 16.8873 139.74C15.8078 138.426 14.8741 138.806 13.7654 139.507C12.6567 140.208 11.4604 140.909 10.2933 141.551C9.35967 142.077 8.77614 142.573 9.18462 143.888C9.62227 145.289 8.48437 146.049 7.08387 145.465C6.67539 145.289 6.29609 145.056 5.80008 144.793L-0.00613117 150.254C0.519054 151.218 0.86918 151.685 1.04424 152.24C1.45272 153.525 0.402351 154.898 -0.793903 154.43C-2.5737 153.73 -3.09888 154.869 -3.74078 155.92C-4.4702 157.117 -5.14127 158.344 -5.78316 159.6C-5.9874 159.979 -6.01658 160.447 -5.8707 160.856C-4.26597 163.455 -4.67444 164.302 -7.82555 164.389Z" fill="#6750A4"/>
<path d="M62.17 153.791C58.6688 157.558 55.0217 161.209 51.6955 165.151C49.4197 167.867 47.0855 170.379 43.6718 171.868L44.8097 173.212C44.9556 173.212 45.1015 173.183 45.2474 173.095C50.3533 167.78 57.6768 166.319 63.6872 162.61C65.0294 161.793 66.4882 161.209 68.0054 160.858C64.2416 163.311 60.4777 165.765 56.7139 168.247C55.1675 169.269 53.7379 170.525 52.1623 171.489C50.9952 172.219 49.6823 172.744 48.4277 173.299C47.5232 173.679 46.5895 174 45.51 174.38L46.1519 175.928C46.2977 175.957 46.4728 175.957 46.6187 175.928C51.3162 172.598 57.064 172.978 62.2867 171.518C65.6129 170.613 69.0266 169.999 72.4403 169.62C67.8595 171.167 63.2787 172.715 58.6979 174.263C56.072 175.168 53.4461 176.103 50.7618 176.95C50.0032 177.184 49.1279 177.125 48.311 177.067C46.8229 176.979 46.181 177.446 46.7938 179.111C47.2314 179.082 47.6399 179.024 48.0484 178.907C52.0456 177.359 56.1012 178.556 60.1276 178.702C65.0294 178.878 69.9311 179.053 74.8328 179.491C69.2308 179.87 63.6289 180.25 58.0269 180.63C57.0932 180.688 56.1596 180.922 55.2551 180.922C53.2419 180.922 51.2286 180.863 49.2154 180.776C48.3693 180.688 47.5524 180.571 46.7354 180.396L46.5312 182.236C46.6479 182.353 46.7646 182.411 46.9105 182.47C52.3374 181.944 56.9182 184.894 61.8782 186.266C65.6421 187.318 69.3475 188.603 72.9946 190.092C67.6261 189.012 62.2575 187.814 56.8598 186.88C53.2419 186.266 49.5656 185.916 46.3853 183.463L45.5975 185.157C45.6559 185.303 45.7434 185.419 45.8601 185.536C52.8042 187.172 57.6476 192.487 63.6872 195.729C65.467 196.692 67.1301 197.89 68.6473 199.263L54.9049 192.429C54.7882 192.37 54.7007 192.312 54.584 192.253C51.1119 190.852 47.6107 189.537 45.1015 186.208L43.8177 187.843C43.8761 187.989 43.9344 188.135 44.0511 188.252C47.6691 189.946 49.9741 193.042 52.4541 195.962C55.6344 199.701 59.0481 203.234 62.1408 207.148C60.9738 206.155 59.8359 205.162 58.6688 204.169C54.6424 200.781 50.5868 197.423 46.6187 193.976C45.8018 193.276 45.2474 192.253 44.6055 191.348C44.0511 190.589 43.5551 189.8 42.9424 188.924L41.4836 189.888C41.4544 190.034 41.4836 190.18 41.5419 190.326C47.0855 195.904 48.807 203.672 52.8626 210.127C53.5336 211.237 54.0588 212.463 54.3506 213.719C52.6292 211.149 50.9661 208.579 49.2154 206.038C47.0563 202.913 44.7805 199.876 42.6506 196.722C42.0379 195.816 41.7462 194.707 41.3669 193.684C41.0167 192.75 40.7541 191.815 40.3748 190.705L38.7117 191.26C38.6534 191.406 38.6242 191.552 38.6242 191.698C42.4464 197.977 42.1255 205.396 44.1387 212.171C44.6347 213.836 44.8973 215.588 44.9264 217.311C43.6427 213.514 42.388 209.689 41.0459 205.892C40.1706 203.41 39.091 201.015 38.2741 198.503C37.8656 197.306 37.7489 196.021 37.5739 194.736C37.4571 193.83 37.4571 192.896 37.3988 191.903H35.4148C35.4439 192.37 35.3564 192.779 35.4731 193.129C36.6694 196.43 36.2901 199.759 35.8232 203.147C35.4439 205.863 35.5315 208.637 35.3856 211.383C35.2397 214.361 35.0938 217.34 34.7437 220.319C34.4227 214.887 34.131 209.455 33.7808 204.052C33.6641 202.475 33.3432 200.927 33.2557 199.35C33.1973 198.094 33.2557 196.809 33.4016 195.553C33.5183 194.415 33.81 193.276 34.0726 191.961L32.2928 191.815C32.2053 191.903 32.1469 191.99 32.1178 192.078C32.2053 198.883 28.529 204.665 26.9243 211.003C26.3116 213.31 25.4946 215.559 24.4442 217.72C25.2904 213.602 26.1948 209.513 26.9826 205.396C27.5078 202.65 27.7704 199.847 28.3539 197.101C28.6165 195.875 29.346 194.765 29.9003 193.597C30.2213 192.925 30.5714 192.253 30.9507 191.465L29.4043 190.676C29.2584 190.735 29.1417 190.852 29.025 190.968C27.4203 197.802 22.1101 202.533 18.9006 208.433C17.7919 210.39 16.5081 212.2 15.0493 213.894C16.9749 210.01 18.9298 206.155 20.8263 202.271C21.9058 200.022 22.8103 197.656 23.919 195.407C24.5026 194.298 25.4071 193.334 26.1948 192.312C26.7784 191.582 27.3911 190.881 28.0913 190.063L26.7784 188.982C26.6325 189.041 26.4866 189.099 26.3699 189.187C23.3063 195.203 17.2084 198.24 12.8318 202.942C11.2854 204.578 9.50563 206.009 7.60913 207.235C10.06 204.432 12.54 201.687 14.9325 198.854C16.8582 196.576 18.6088 194.181 20.5637 191.903C21.2639 191.085 22.256 190.501 23.1604 189.859C23.9482 189.274 24.7943 188.749 25.728 188.106L24.7652 186.646C24.6193 186.617 24.4734 186.617 24.3275 186.646C19.0757 192.137 11.548 193.743 5.39169 197.627C4.3705 198.299 3.20341 198.708 2.00716 198.883C5.59592 196.488 9.18468 194.122 12.7443 191.698C14.349 190.618 15.7787 189.304 17.4126 188.281C18.6088 187.522 20.0093 187.026 21.3223 186.442C22.1101 186.091 22.927 185.828 23.919 185.449L23.3063 183.755C23.1313 183.726 22.9562 183.696 22.8103 183.726C17.1792 187.289 10.4685 186.909 4.34131 188.632C2.09469 189.274 -0.239465 189.654 -2.6028 189.771C0.139835 188.836 2.88247 187.931 5.6251 186.967C9.18469 185.711 12.7443 184.339 16.333 183.112C17.4126 182.762 18.6088 182.762 19.7759 182.616C20.7096 182.528 21.6432 182.47 22.6644 182.411V180.396C21.0597 180.717 19.6008 181.039 18.142 181.331C17.5293 181.477 16.8874 181.564 16.2455 181.564C9.06797 181.097 1.89045 180.63 -5.28708 180.133C-5.46214 180.133 -5.63719 180.046 -5.7539 179.9C0.139839 179.549 6.03357 179.316 11.9273 178.79C15.4869 178.469 18.9881 178.001 22.6353 179.432L22.8687 177.154C22.256 177.038 21.6724 176.979 21.0597 176.979C16.7707 177.271 13.2695 174.76 9.38892 173.591C5.3625 172.365 1.39444 170.934 -2.51527 169.298C-1.72749 169.415 -0.939715 169.503 -0.181115 169.678C4.19543 170.671 8.5428 171.868 12.9777 172.628C16.5081 173.212 19.9802 173.737 23.0729 176.132L23.9482 174.322C23.8607 174.176 23.744 174.059 23.6273 173.942C17.3251 172.54 13.1528 167.517 7.81337 164.509C5.68346 163.282 3.69942 161.793 1.91963 160.128C3.61189 160.975 5.30416 161.851 6.99642 162.698C11.2271 164.801 15.5161 166.845 19.7176 169.006C20.7388 169.532 21.5557 170.437 22.4602 171.167C23.1604 171.752 23.8315 172.394 24.6485 173.124L25.9322 171.635C25.9031 171.489 25.8447 171.343 25.7572 171.226C19.8343 167.984 17.0625 161.763 12.5109 157.207C11.0228 155.689 9.70987 153.995 8.63032 152.184C9.00962 152.476 9.38892 152.739 9.73904 153.06C14.2906 157.178 18.9298 161.238 23.3355 165.472C24.7652 166.845 25.6697 168.773 26.9243 170.583L28.3539 169.62C28.3248 169.474 28.2664 169.328 28.208 169.211C23.9774 165.502 22.9562 159.953 20.3886 155.28C18.8131 152.359 17.4709 149.322 16.4206 146.168C18.9006 150.111 21.3223 154.083 23.8315 157.996C24.8527 159.573 26.0781 161.004 27.0118 162.61C27.6537 163.691 28.033 164.947 28.4998 166.115C28.8208 166.991 29.0834 167.867 29.4043 168.889L31.009 168.364C31.0674 168.218 31.0966 168.101 31.0674 167.955C27.4495 162.172 28.0622 155.338 26.3115 149.089C25.6988 146.694 25.2904 144.241 25.1737 141.787C26.3699 145.555 27.5078 149.322 28.7624 153.06C29.6669 155.776 30.7173 158.434 31.5926 161.179C31.9427 162.406 32.1469 163.662 32.2345 164.947C32.2928 165.881 32.2928 166.816 32.2636 167.75C33.4015 168.013 34.4811 167.984 33.9851 166.699C32.2928 162.085 33.9559 157.558 33.9559 152.973C33.9559 149.702 34.2477 146.431 34.4227 143.16C34.4227 142.488 34.627 141.817 35.0063 141.232C35.1813 144.357 35.298 147.482 35.5315 150.607C35.7941 154.17 36.2901 157.704 36.4359 161.267C36.4943 162.99 35.9691 164.713 35.6773 166.436C35.619 166.845 35.5606 167.225 35.4731 167.838L37.3696 167.984C37.8364 159.369 42.3005 152.097 44.3137 144.094C44.4888 143.335 44.8389 142.634 45.3349 142.021C44.7805 144.649 44.1678 147.278 43.6718 149.906C42.8549 154.083 42.2713 158.317 41.2793 162.464C40.8125 164.45 39.6162 166.29 38.6534 168.393L40.1998 169.152C40.3457 169.094 40.4915 169.006 40.6082 168.889C42.3589 162.026 47.7858 157.383 51.1119 151.454C52.1331 149.702 53.3586 148.066 54.7591 146.577C52.8626 150.228 50.9369 153.878 49.0696 157.558C47.9025 159.836 46.9396 162.231 45.7434 164.509C45.189 165.56 44.3429 166.495 43.5843 167.429C42.9424 168.247 42.213 168.977 41.4544 169.824L42.9132 171.021C43.0299 170.992 43.1758 170.963 43.2634 170.875C46.3561 165.064 52.3957 162.318 56.8014 157.879C58.377 156.273 60.186 154.93 61.9074 153.469L62.17 153.791ZM45.9476 179.929C45.9476 173.445 41.1043 168.597 34.6562 168.597C28.4998 168.539 23.4522 173.475 23.3938 179.666C23.3938 179.783 23.3938 179.9 23.3938 179.987C23.3938 186.208 28.4123 191.26 34.627 191.26C34.6853 191.26 34.7437 191.26 34.802 191.26C41.0751 191.202 45.9476 186.237 45.9476 179.929Z" fill="#6750A4"/>
</g>
</svg>
