<svg width="58" height="50" viewBox="0 0 58 50" fill="none" xmlns="http://www.w3.org/2000/svg">
<path d="M28.9994 37.3333C26.745 37.3333 24.583 36.4378 22.9889 34.8437C21.3949 33.2497 20.4993 31.0877 20.4993 28.8333C20.4993 25.66 22.2277 22.8833 24.7493 21.4383L52.261 5.515L36.5927 32.6583C35.176 35.435 32.3144 37.3333 28.9994 37.3333ZM28.9994 0.5C34.1277 0.5 38.916 1.91667 43.081 4.24L37.131 7.66833C34.666 6.705 31.8327 6.16667 28.9994 6.16667C22.9878 6.16667 17.2224 8.55476 12.9716 12.8056C8.72077 17.0564 6.33268 22.8218 6.33268 28.8333C6.33268 35.095 8.85435 40.7617 12.9627 44.8417H12.991C14.096 45.9467 14.096 47.7317 12.991 48.8367C11.886 49.9417 10.0727 49.9417 8.96768 48.865C3.83935 43.7367 0.666016 36.6533 0.666016 28.8333C0.666016 21.3189 3.65113 14.1122 8.96466 8.79864C14.2782 3.48511 21.4849 0.5 28.9994 0.5ZM57.3327 28.8333C57.3327 36.6533 54.1594 43.7367 49.031 48.865C47.926 49.9417 46.141 49.9417 45.036 48.8367C43.931 47.7317 43.931 45.9467 45.036 44.8417C49.1444 40.7333 51.666 35.095 51.666 28.8333C51.666 26 51.1277 23.1667 50.136 20.6167L53.5644 14.6667C55.916 18.9167 57.3327 23.6767 57.3327 28.8333Z" fill="#6750A4"/>
</svg>
