<svg width="1120" height="545" viewBox="0 0 1120 545" fill="none" xmlns="http://www.w3.org/2000/svg">
<ellipse cx="138.939" cy="67.599" rx="56.9388" ry="55.599" fill="#6750A4"/>
<path d="M133.56 75V72.888C134.051 72.8667 134.456 72.8027 134.776 72.696C135.117 72.5893 135.373 72.344 135.544 71.96C135.736 71.576 135.832 70.9573 135.832 70.104V57.272L132.344 59.352L131.192 57.432L138.52 52.088H140.44V69.752C140.44 70.328 140.429 70.8827 140.408 71.416C140.408 71.9493 140.387 72.3547 140.344 72.632C140.685 72.5893 141.112 72.568 141.624 72.568C142.157 72.5467 142.531 72.536 142.744 72.536V75H133.56Z" fill="white"/>
<line x1="140.614" y1="209.276" x2="140.614" y2="136.26" stroke="#6750A4" stroke-width="2.0096" stroke-linecap="round" stroke-linejoin="bevel"/>
<ellipse cx="700.274" cy="55.599" rx="57.2737" ry="55.599" fill="#66A4CA" fill-opacity="0.56"/>
<path d="M700.103 63.3284C698.495 63.3284 697.177 63.0926 696.148 62.621C695.119 62.128 694.358 61.517 693.865 60.7882C693.372 60.0594 693.125 59.3306 693.125 58.6018C693.125 57.9587 693.318 57.4014 693.704 56.9298C694.111 56.4368 694.647 56.1795 695.312 56.1581C695.848 56.1367 696.266 56.2438 696.566 56.4796C696.866 56.7154 697.08 56.9941 697.209 57.3156C697.338 57.6372 697.402 57.9373 697.402 58.2159C697.402 58.4303 697.359 58.6768 697.273 58.9555C697.187 59.2127 697.059 59.4592 696.887 59.695C697.123 60.1023 697.509 60.4238 698.045 60.6596C698.602 60.874 699.181 60.9811 699.781 60.9811C701.132 60.9811 702.15 60.5739 702.836 59.7593C703.522 58.9447 703.865 57.9373 703.865 56.7369C703.865 56.008 703.725 55.2792 703.447 54.5504C703.168 53.8216 702.686 53.2214 702 52.7498C701.314 52.2568 700.349 52.021 699.106 52.0424C698.956 52.0424 698.688 52.0531 698.302 52.0746C697.916 52.096 697.627 52.1175 697.434 52.1389V49.8238C697.605 49.8453 697.766 49.856 697.916 49.856C698.066 49.856 698.216 49.856 698.366 49.856C699.31 49.856 700.113 49.6845 700.778 49.3415C701.442 48.9985 701.946 48.527 702.289 47.9268C702.654 47.3266 702.847 46.6299 702.868 45.8368C702.889 45.0865 702.793 44.4327 702.579 43.8754C702.386 43.2966 702.064 42.8465 701.614 42.5249C701.185 42.2034 700.606 42.0426 699.878 42.0426C699.299 42.0426 698.774 42.182 698.302 42.4606C697.831 42.7393 697.509 43.0501 697.338 43.3931C697.53 43.6289 697.659 43.9075 697.723 44.2291C697.809 44.5292 697.852 44.7757 697.852 44.9686C697.852 45.2258 697.777 45.5259 697.627 45.8689C697.498 46.1905 697.273 46.4691 696.952 46.7049C696.63 46.9407 696.201 47.0479 695.666 47.0265C695.001 47.005 694.497 46.7692 694.154 46.3191C693.811 45.8689 693.64 45.333 693.64 44.7114C693.64 44.0683 693.886 43.3609 694.379 42.5892C694.872 41.8176 695.623 41.1638 696.63 40.6279C697.638 40.0705 698.892 39.7919 700.392 39.7919C701.721 39.7919 702.922 39.9741 703.993 40.3385C705.087 40.7029 705.944 41.3031 706.566 42.1391C707.209 42.9751 707.53 44.0898 707.53 45.4831C707.53 46.0404 707.369 46.6728 707.048 47.3801C706.748 48.0661 706.244 48.6984 705.537 49.2772C704.829 49.856 703.886 50.2847 702.707 50.5634C704.765 50.9278 706.276 51.6673 707.241 52.782C708.227 53.8966 708.72 55.1399 708.72 56.5118C708.72 57.9694 708.345 59.2127 707.595 60.2416C706.866 61.2491 705.848 62.0208 704.54 62.5567C703.254 63.0711 701.775 63.3284 700.103 63.3284Z" fill="white"/>
<line x1="698.995" y1="210.339" x2="698.995" y2="128.615" stroke="#66A4CA" stroke-width="2.0096"/>
<ellipse cx="979.939" cy="486.041" rx="56.9388" ry="55.599" fill="#66D6E0"/>
<path d="M984.376 487.982C984.376 488.561 984.365 489.119 984.344 489.654C984.322 490.19 984.29 490.598 984.247 490.876C984.612 490.833 985.051 490.812 985.566 490.812C986.08 490.791 986.444 490.78 986.659 490.78V493.256H977.495V491.134H977.688C978.181 491.134 978.599 491.08 978.942 490.973C979.306 490.866 979.585 490.619 979.778 490.233C979.992 489.826 980.099 489.194 980.099 488.336V487.436H971.386V484.413L982.415 470.234H984.376V484.542H987.527V487.436H984.376V487.982ZM980.067 476.986L974.376 484.446L980.099 484.478L980.132 476.986H980.067Z" fill="white"/>
<line x1="978.995" y1="419.724" x2="978.995" y2="338" stroke="#66D6E0" stroke-width="2.0096"/>
<ellipse cx="420.274" cy="489.06" rx="57.2737" ry="55.599" fill="#677AB7"/>
<path d="M413.254 496.275C413.254 495.16 413.393 494.164 413.672 493.285C413.972 492.406 414.358 491.613 414.83 490.905C415.323 490.198 415.858 489.544 416.437 488.944C417.037 488.344 417.648 487.754 418.27 487.175C419.835 485.718 420.939 484.4 421.582 483.221C422.246 482.042 422.579 480.873 422.579 479.716C422.579 479.03 422.493 478.365 422.321 477.722C422.15 477.079 421.839 476.554 421.389 476.147C420.939 475.718 420.306 475.514 419.492 475.536C418.913 475.536 418.388 475.675 417.916 475.954C417.466 476.211 417.123 476.522 416.887 476.886C417.123 477.122 417.284 477.401 417.37 477.722C417.477 478.044 417.53 478.322 417.53 478.558C417.53 478.794 417.455 479.083 417.305 479.426C417.155 479.748 416.92 480.027 416.598 480.262C416.298 480.498 415.88 480.616 415.344 480.616C414.679 480.573 414.165 480.327 413.801 479.877C413.458 479.426 413.286 478.891 413.286 478.269C413.286 477.776 413.436 477.251 413.736 476.693C414.036 476.115 414.487 475.568 415.087 475.054C415.687 474.518 416.416 474.089 417.273 473.767C418.152 473.424 419.16 473.253 420.296 473.253C421.153 473.253 422 473.36 422.836 473.574C423.693 473.789 424.476 474.132 425.183 474.603C425.89 475.075 426.448 475.697 426.855 476.468C427.284 477.24 427.498 478.194 427.498 479.33C427.498 479.866 427.402 480.434 427.209 481.034C427.016 481.613 426.662 482.256 426.148 482.963C425.633 483.649 424.915 484.442 423.993 485.343C423.072 486.243 421.882 487.293 420.424 488.494C419.245 489.458 418.377 490.337 417.82 491.13C417.262 491.923 416.93 492.534 416.823 492.963L423.125 493.124C423.618 493.145 424.036 493.113 424.379 493.027C424.744 492.92 425.022 492.717 425.215 492.416C425.43 492.095 425.537 491.634 425.537 491.034H427.595L427.337 496.275H413.254Z" fill="white"/>
<line x1="418.995" y1="419.054" x2="418.995" y2="338" stroke="#677AB7" stroke-width="2.0096"/>
<path d="M0 264C0 256.268 6.26801 250 14 250H280V298H14C6.26802 298 0 291.732 0 284V264Z" fill="#6750A4"/>
<rect x="280" y="250" width="280" height="48" fill="#677AB7"/>
<rect x="560" y="250" width="280" height="48" fill="#66A4CA" fill-opacity="0.56"/>
<path d="M840 250H1106.6C1114 250 1120 255.998 1120 263.397V284.603C1120 292.002 1114 298 1106.6 298H840V250Z" fill="#66D6E0"/>
<path d="M139.401 322L125.893 298H152.91L139.401 322Z" fill="#6750A4"/>
<path d="M700 322L686.144 298H713.856L700 322Z" fill="#66A4CA" fill-opacity="0.56"/>
<path d="M420 226L433.856 250H406.144L420 226Z" fill="#677AB7"/>
<path d="M980 226L993.856 250H966.144L980 226Z" fill="#66D6E0"/>
</svg>
